<svg width="122" height="46" viewBox="0 0 122 46" fill="none" xmlns="http://www.w3.org/2000/svg">
<path fill-rule="evenodd" clip-rule="evenodd" d="M24.0167 22.5059C21.1226 22.5642 19.2326 22.3893 15.5117 22.5642C15.1573 22.5642 15.0392 22.5642 15.0392 22.5059L14.862 22.1561C14.5667 21.6313 14.2713 20.8734 13.8579 19.9988C13.4445 19.1242 12.972 18.0747 12.3223 17.0835C11.0229 15.0428 9.13291 12.9438 6.17978 11.6611L5.88447 11.5445L5.94353 11.8943C6.23884 13.935 6.35697 15.3926 6.53416 16.4421C6.71134 17.4916 6.82947 18.2496 7.12478 18.7744C7.42009 19.2991 8.06978 19.8239 8.95572 20.4069C9.60541 20.8151 10.4323 21.2815 11.3182 21.8062C11.7907 22.0395 11.6135 22.2727 11.3182 22.2727C8.18791 22.2144 2.45885 22.1561 0.332596 22.1561C-0.0808417 22.1561 -0.139904 21.9229 0.332596 21.6896C2.57697 20.6984 3.87634 19.5906 3.93541 18.7744C3.99447 17.9581 4.11259 14.1099 4.05353 11.1947C3.9354 5.59733 3.87634 3.49833 3.75822 3.2068L3.58103 3.03188L3.22666 2.74036L2.39978 1.98239C1.86822 1.51594 1.27759 0.991192 0.746031 0.466443C0.332594 0.11661 0.568844 -4.44835e-07 0.746031 -4.44835e-07C2.69509 0.058305 9.19197 -0.058305 13.1492 0.233222C14.0351 0.291528 14.5667 0.349833 14.862 0.408138C15.0982 0.466444 15.2163 0.52475 15.2754 0.641361C16.2795 1.92408 17.4017 4.89766 16.3976 7.63802C15.3935 10.3784 13.5626 11.0197 9.54634 11.3113L8.89666 11.3696L9.42822 11.6611C10.0779 12.0109 10.7867 12.6523 11.5545 13.4103C12.3223 14.1682 13.1492 15.0428 13.976 15.9174C15.6298 17.6666 17.4017 19.5323 18.9963 20.3486C20.7092 21.2232 22.3629 21.7479 23.9576 22.0395C24.6073 22.2144 24.6073 22.5059 24.0167 22.5059ZM12.5585 2.44883C12.2042 1.69086 11.8498 1.22441 10.6685 1.57425C8.66041 2.21561 6.94759 2.74036 5.17572 3.49833L5.05759 3.67324C5.11666 4.60613 5.23478 7.63802 5.64822 10.3201L5.8254 10.495C12.2042 10.4367 14.2123 6.23869 12.5585 2.44883Z" transform="translate(16.3418 15.7945)" fill="#333333"/>
<path fill-rule="evenodd" clip-rule="evenodd" d="M1.05948 0.116612C2.47698 0.0583064 5.19386 4.44836e-07 7.73354 4.44836e-07C10.6276 4.44836e-07 13.2264 0.0583046 13.7579 0.233221C16.0023 1.22441 17.8332 6.47191 15.707 8.5126C15.2345 8.97905 14.6438 9.32888 13.9942 9.6204C13.3445 9.91193 12.5767 10.2035 11.6907 10.6116L11.2773 10.7865L11.6907 10.9614C12.5767 11.3696 13.2854 11.6028 13.876 11.7194C14.1714 11.7777 14.4076 11.836 14.5848 11.9526C14.762 12.0109 14.9392 12.0692 15.0573 12.1858C18.1876 14.7513 16.8882 20.99 15.1164 21.8646C13.3445 22.7391 12.2223 22.9141 10.3323 22.9141C8.38323 22.9141 5.6073 22.6225 0.52792 22.6808C0.468858 22.6808 0.350727 22.6808 0.291665 22.6808C-0.00364764 22.6808 -0.180835 22.5059 0.291665 22.2144C1.41385 21.5147 2.41792 21.0483 3.18573 20.6401C3.65823 20.4069 4.07166 20.1737 4.42604 19.9405C4.72135 19.7073 4.9576 19.474 5.01666 19.1825C5.37104 16.6754 5.60729 15.0428 5.78448 13.8767C5.96167 12.6523 6.02073 11.8943 6.02073 11.1363C6.02073 10.3784 5.90261 9.5621 5.66636 8.33768C5.48917 7.11327 5.19386 5.42241 4.78042 2.85697C4.01261 2.21561 3.36291 1.86578 2.77229 1.45764C2.29979 1.16611 1.82729 0.932888 1.23667 0.583055C0.646043 0.349833 0.586979 0.116612 1.05948 0.116612ZM7.02479 9.67871C7.02479 9.73702 7.02479 9.79532 7.08385 9.91193C7.14291 10.0285 7.26104 10.0285 7.32011 10.0285C7.37917 10.0285 7.49729 10.0285 7.61542 9.97024C8.61948 9.62041 9.56448 9.44549 10.3323 9.21227C11.1001 8.97905 11.7498 8.62921 12.2223 8.10446C13.6988 6.29699 11.986 2.33222 11.041 1.69086H10.8639C9.85979 2.099 9.15104 2.21561 8.32417 2.56544C7.73354 6.23869 7.20198 8.10446 7.08385 9.5621L7.02479 9.67871ZM8.61948 20.1737C10.4504 22.0978 14.6439 22.2144 13.7579 16.7337C13.1082 13.0021 8.67854 11.0197 7.08385 11.3696C6.61135 11.836 7.79261 19.2991 8.61948 20.1737Z" transform="translate(68.8335 13.9871)" fill="#333333"/>
<path fill-rule="evenodd" clip-rule="evenodd" d="M0.244136 26.187C4.14226 25.0209 5.5007 23.0385 6.62289 20.7646C7.8632 18.3158 9.16257 10.5611 10.0485 4.61398C10.1666 3.62279 9.93038 3.21465 9.04444 2.6899C8.27663 2.22346 6.9182 1.6987 4.85101 0.47429C4.43758 0.241068 4.43758 0.00784649 4.85101 0.00784649C6.9182 -0.050459 12.6473 0.24107 16.0729 0.0661533C16.4863 0.0661533 16.4863 0.241069 16.0729 0.532597C14.9507 1.17396 13.2969 2.28176 12.8835 2.45668C11.9976 2.86482 12.0566 3.7977 12.1748 4.38076C12.8835 7.52925 13.5332 11.3774 14.1238 14.7008C14.7144 18.0242 15.3051 20.9395 15.8366 22.2805C16.2501 23.33 19.1441 24.4962 24.4598 25.9538C24.8141 26.0704 24.696 26.1287 24.4598 26.187C20.8569 26.5951 16.0138 26.2453 14.3601 26.3619C13.5923 26.4202 13.5332 26.2453 13.5332 26.2453C13.5332 26.187 13.5332 26.1287 13.5332 26.0704C13.5923 25.9538 13.5923 25.8372 13.6513 25.7789C13.7694 25.1958 14.0057 23.6216 13.5332 22.6887C13.2969 22.1639 12.7654 21.989 12.2929 21.9307C12.0566 21.9307 11.7613 21.9307 11.5251 21.9307L10.9344 21.989C10.5801 21.989 10.2257 21.989 9.87132 22.0473C9.57601 22.0473 9.22164 22.1639 8.98539 22.3388C8.45382 22.8053 8.69007 23.7382 8.98539 24.4962C9.2807 25.1958 9.69413 25.8955 9.98945 26.2453C10.0485 26.3036 10.6391 26.7118 9.98945 26.7118C6.50476 26.6535 2.25226 26.6535 0.244136 26.5951C-0.110239 26.3619 -0.0511766 26.2453 0.244136 26.187ZM9.10351 17.9659C9.04445 18.3158 9.04445 18.9571 9.22163 19.4236C9.45788 19.9483 9.98944 20.1815 10.8163 19.7734C12.411 19.0737 12.7063 18.2575 12.6473 17.4412C12.411 15.692 11.8794 8.52045 11.4069 6.30484L11.1707 5.25534L10.9935 6.30484C10.1076 12.4852 9.81226 13.8846 9.10351 17.9659Z" transform="translate(79.8633 12.2883)" fill="#333333"/>
<path d="M4.74442 3.27417C4.33098 2.98264 2.02754 1.64162 0.196606 0.4172C-0.157769 0.183978 0.0194186 -0.0492442 0.314731 0.00906125C3.32692 0.300589 10.001 0.475506 15.9663 0.708728H16.3797C16.5569 0.767033 16.5569 0.767033 16.5569 0.825339C16.5569 0.94195 16.5569 1.05856 16.5569 1.29178C16.4388 2.16636 16.3207 4.32367 16.1435 6.42267C16.1435 6.71419 15.8482 6.7725 15.671 6.42267C15.4938 6.07283 15.1985 5.60639 14.9622 5.08164C14.4307 4.14875 13.781 3.04095 13.3675 2.16636C13.2494 1.93314 13.0722 1.69992 12.5997 1.87484C9.70567 3.09925 9.11504 3.33248 8.87879 3.5657C8.7016 3.74061 8.58348 4.26536 8.46535 4.96503C8.34723 5.723 8.17004 6.7725 7.87473 8.23014C7.81567 8.63828 7.93379 8.87149 8.28817 8.9881C8.40629 9.04641 8.58348 9.04641 8.76067 9.04641C8.93785 9.04641 9.11504 9.10472 9.35129 9.10472L10.06 9.22133C10.2372 9.22133 10.4144 9.27963 10.5325 9.27963C10.8279 9.27963 11.005 9.10472 11.1822 8.81319C11.4185 8.40505 12.2454 7.00572 12.895 5.723C13.0722 5.43147 13.3675 5.37317 13.3675 5.723C13.3675 7.47216 13.3675 11.0871 13.4266 14.0607C13.4266 14.3522 13.1313 14.3522 12.9541 14.0607C12.4225 13.1278 12.0682 12.3115 11.7729 11.6702C11.5957 11.262 11.4185 10.9705 11.3004 10.7373L11.1232 10.6207C10.8869 10.3874 10.7688 10.4457 10.7097 10.4457C10.6507 10.4457 10.5916 10.5041 10.4735 10.5041C10.2963 10.5624 10.1191 10.679 9.88286 10.7956C9.41036 11.0288 8.87879 11.3786 8.28817 11.7285C7.99285 11.9034 7.93379 12.02 8.05192 12.5447C8.58348 14.702 8.99692 15.46 9.58754 17.6173C9.70567 18.0255 9.88285 18.2587 10.2963 18.3753C10.6507 18.4919 11.1822 18.6085 12.1863 18.9C13.3085 19.2499 13.9582 19.4831 14.3716 19.5414C14.785 19.5997 15.0213 19.5414 15.1394 19.1916C15.8482 16.976 16.2616 15.9265 16.675 14.9936C16.9704 14.2356 17.2657 13.5359 17.62 12.4281C17.7382 12.1366 18.0335 12.1366 18.0925 12.4281C18.6832 16.801 18.6241 18.3753 18.8604 19.658C19.0375 20.7658 18.6241 20.999 18.0925 20.999C12.895 21.1157 5.09879 20.8241 2.08661 20.8824C1.61411 20.8824 1.67317 20.6492 2.08661 20.416C4.86254 18.7834 5.63035 17.8505 5.8666 17.5007C6.22098 17.0926 6.51629 14.0607 6.63442 12.5447C6.69348 11.3786 6.39817 6.42266 6.28004 5.43147C5.98473 4.20706 5.80754 3.97384 4.74442 3.27417Z" transform="translate(0 14.9109)" fill="#333333"/>
<path d="M0.297151 1.72573C1.18309 1.72573 2.65965 1.78404 4.13621 1.95895C6.2034 2.19217 8.0934 2.65862 8.5659 3.35828C9.80621 5.28236 10.515 7.08983 11.2237 9.30544C11.9325 11.5211 12.7003 13.9699 13.9996 17.1184L14.4131 18.0513V17.0018C14.295 12.4539 14.295 6.85661 14.354 2.4254C14.354 0.44301 14.7675 0.268093 15.8306 0.151482C18.134 -0.0234348 20.5556 -0.0234353 22.4456 0.0348702C22.9181 0.0348702 22.9181 0.268094 22.4456 0.501316C18.7837 2.19217 17.0118 5.04914 16.1259 8.89731C15.6534 10.8797 15.4172 13.2119 15.299 15.719C15.1809 18.2262 15.1218 20.9082 15.0037 23.8235C15.0037 24.29 14.8265 24.4649 14.7675 24.5232C14.7084 24.5232 14.6493 24.5232 14.5903 24.3483C14.1178 22.774 13.409 20.1503 12.1687 17.1767C10.9284 14.1448 9.15652 10.7631 6.61684 7.7312L6.2034 7.20645L6.26246 7.84781C7.08934 15.4275 7.79809 17.1767 8.38871 18.2262C8.80215 18.9842 10.2196 19.9753 11.1056 20.5584C11.5781 20.8499 11.4009 21.0248 11.1056 21.0248C8.68402 20.9665 4.43152 20.7333 1.9509 20.675C1.24215 20.675 1.65559 20.4418 1.9509 20.2086C2.95496 19.4506 5.14027 17.4682 5.19934 16.0689C5.2584 14.8445 4.84496 13.4451 4.60871 5.6905C3.72277 4.5827 1.71465 3.18337 0.238089 2.19217C-0.116286 1.90065 -0.0572244 1.72573 0.297151 1.72573Z" transform="translate(30.8472 12.7277)" fill="#333333"/>
<path d="M0.280747 19.1242C0.57606 18.9493 0.930433 18.7161 1.28481 18.4828C2.28887 17.8415 3.52918 17.0252 4.23793 16.2672C5.53731 14.8679 5.83262 5.01427 4.7695 2.97358C4.53325 2.50713 4.23793 2.099 4.00168 1.74916C3.76543 1.39933 3.52918 1.1078 3.352 0.874581C3.23387 0.75797 3.17481 0.64136 3.11574 0.524749C2.76137 0.0583055 2.99762 0.0583037 3.11574 0.0583037C3.17481 0.0583037 3.29293 0.0583037 3.41106 0.0583037C3.88356 0.0583037 4.65137 0.116613 6.00981 0.116613C7.6045 0.116613 8.54949 0.0583046 9.14012 -8.89671e-07C9.3173 -8.89671e-07 9.43544 -8.89671e-07 9.55356 -8.89671e-07C9.67169 -8.89671e-07 9.84888 0.116612 9.55356 0.466445C9.4945 0.52475 9.49449 0.524749 9.43543 0.583054C9.02199 1.0495 8.25418 1.92408 7.132 3.38172C6.54137 4.13969 6.89575 14.2848 8.077 16.3255C8.5495 17.0835 9.25825 17.8415 9.967 18.4245C10.3214 18.7161 10.6167 19.1825 10.912 19.4157H10.9711C11.3845 19.649 11.2664 19.649 10.9711 19.649C9.67168 19.7073 7.36825 19.7656 5.06481 19.5906C3.05668 19.474 1.69825 19.474 0.812311 19.5323C0.635123 19.5323 0.457935 19.5323 0.280747 19.5323C0.10356 19.5906 -0.250815 19.5323 0.280747 19.1242Z" transform="translate(45.3359 18.5931)" fill="#333333"/>
<path d="M5.33531 3.37203C4.39031 5.70425 1.20094 5.1212 0.433125 3.95509C-0.39375 2.67237 -0.1575 0.748287 2.205 0.106927C4.62656 -0.534433 5.92594 1.85609 5.33531 3.37203Z" transform="translate(49.0796 7)" fill="#333333"/>
<path d="M0.34563 0.00650297C2.76719 0.181419 9.08688 0.589558 14.2253 0.589558C14.6388 0.589558 14.5797 0.822779 14.2253 1.056C13.2213 1.58075 12.2172 2.1055 11.3903 2.51364C10.8588 2.80517 10.3863 3.03839 10.0909 3.2133C9.91376 3.32992 9.79563 3.38822 9.67751 3.50483C9.50032 3.67975 9.50031 3.73805 9.44125 3.79636C9.205 5.83705 8.67344 9.86013 8.26 13.4751C7.84656 17.0317 7.55126 20.4134 7.90563 20.8799C8.14188 21.1714 8.73251 21.4046 9.67751 21.8128C10.6225 22.1626 11.9219 22.6873 13.6938 23.3287C13.8119 23.387 16.2334 19.4222 17.1194 17.9063C17.2966 17.6148 17.5919 17.3815 17.5919 17.9063C17.6509 19.8304 17.71 22.8623 17.8872 24.6697C17.9463 25.0779 17.8281 25.1362 17.8281 25.1945C17.7691 25.2528 17.5919 25.2528 17.4738 25.2528C11.3313 25.1362 8.4372 25.0779 1.88126 25.0779C1.76313 25.0779 1.29063 25.0779 1.88126 24.6114C3.18063 23.6785 5.48406 21.8128 5.8975 21.3463C6.66531 20.4717 6.66531 18.7226 6.48813 15.9239C6.31094 13.0669 5.83844 8.98555 5.48407 3.44653C5.48407 3.09669 4.18469 2.39703 0.286563 0.414642C0.0503134 0.298031 -0.244996 -0.0518025 0.34563 0.00650297Z" transform="translate(104.097 12.6976)" fill="#333333"/>
<path d="M2.835 0.466444C1.47656 0.466444 0.413439 1.51594 0.413439 2.85697C0.413439 4.19799 1.47656 5.24749 2.835 5.24749C4.19343 5.24749 5.25656 4.19799 5.25656 2.85697C5.1975 1.51594 4.13437 0.466444 2.835 0.466444ZM2.835 -1.77934e-06C4.42968 -1.77934e-06 5.67 1.22442 5.67 2.79866C5.67 4.37291 4.42968 5.59733 2.835 5.59733C1.24031 5.59733 3.60489e-06 4.37291 3.60489e-06 2.79866C3.60489e-06 1.28272 1.24031 -1.77934e-06 2.835 -1.77934e-06Z" transform="translate(113.36 27.9803)" fill="#333333"/>
<path d="M0.413436 1.86578V3.1485H0V-1.77934e-06H0.649691C1.29938 -1.77934e-06 1.77187 0.291529 1.77187 0.93289C1.77187 1.45764 1.29937 1.74917 1.00406 1.80747L2.00812 3.2068H1.47656L0.531559 1.92408L0.413436 1.86578ZM0.413436 1.45764H0.708748C1.06312 1.45764 1.35844 1.28272 1.35844 0.93289C1.35844 0.583057 1.12219 0.408139 0.708748 0.408139H0.413436V1.45764Z" transform="translate(115.367 29.1465)" fill="#333333"/>
<path d="M2.34871 20.232C3.05746 19.5323 4.06152 18.4828 4.59308 17.7249C4.77027 17.4916 4.82933 16.2089 4.88839 14.9262C4.94746 13.5852 4.94745 12.0109 4.94745 11.0197C5.00651 9.03735 4.17964 2.74036 4.00246 2.56544C3.94339 2.50714 3.88433 2.44883 3.7662 2.39053L3.41183 2.1573C3.11652 1.98239 2.8212 1.80747 2.40776 1.57425C1.63995 1.16611 0.754012 0.641359 0.0452623 0.174916C-0.0728627 0.0583046 0.0452623 -4.44836e-07 0.340575 -4.44836e-07C4.65214 -4.44836e-07 13.0981 0 13.984 0.116611C14.0431 0.116611 14.0431 0.11661 14.0431 0.174916C14.0431 0.174916 14.0431 0.174917 14.0431 0.233222C14.0431 0.466444 14.0431 1.16611 14.0431 2.21561C14.0431 3.26511 13.984 4.60613 13.984 5.94716C13.984 6.58852 13.8068 6.3553 13.5115 5.94716C12.9209 5.07258 12.3893 4.19799 11.9759 3.49833C11.7396 3.09019 11.5034 2.74036 11.3262 2.44883C11.149 2.1573 10.9718 1.98239 10.8537 1.86578C10.7356 1.80747 10.6175 1.80747 10.4993 1.80747C10.3812 1.80747 10.2631 1.80747 10.0859 1.86578C9.79058 1.92408 9.4362 2.04069 8.9637 2.21561C8.4912 2.33222 8.13683 2.44883 7.84152 2.50713C7.72339 2.56544 7.5462 2.62375 7.42807 2.68205C7.30995 2.74036 7.25089 2.85697 7.19183 3.03188C6.95558 4.48952 6.18777 7.98785 6.06964 8.80413C6.06964 9.09566 6.18776 9.27057 6.42401 9.32888C6.54214 9.38718 6.66026 9.38718 6.83745 9.38718L7.36902 9.44549C7.78245 9.50379 8.07777 9.5621 8.25495 9.5621C8.43214 9.5621 8.66839 9.5621 8.78651 9.32888C9.4362 8.10446 10.145 6.82174 10.6175 5.94716C10.9718 5.3641 11.09 5.3058 11.09 5.94716C10.9718 7.98785 10.8537 12.4191 10.7946 14.4015C10.7946 15.1594 10.5584 14.8679 10.3221 14.4015C9.67245 13.0021 9.25901 12.1275 8.60932 10.9031C8.4912 10.6699 8.31401 10.6116 8.0187 10.6699C7.84151 10.7282 7.5462 10.8448 7.13276 11.0197L6.54214 11.1947C6.36495 11.253 6.24683 11.3113 6.18777 11.3696C5.95152 11.4862 5.89245 11.6611 5.95151 11.836C6.83745 15.2177 7.72339 18.3079 8.0187 18.4828C8.60932 18.8327 9.08182 19.1242 9.49526 19.3574C9.67245 19.474 9.84964 19.5906 9.96776 19.5906C10.0268 19.5906 10.0859 19.6489 10.145 19.6489C10.204 19.6489 10.3221 19.6489 10.3812 19.5906C10.9718 19.1242 11.6215 17.9581 12.2712 16.6754C12.7437 15.7425 13.1571 14.693 13.5706 13.8184C13.8068 13.2936 13.984 13.1187 14.0431 13.8184C14.1612 15.7425 14.3384 19.9988 14.2793 20.4069C14.2793 20.5235 14.2793 20.5818 14.2793 20.6984C14.2203 20.8151 14.1021 20.8151 13.9249 20.8151C13.2162 20.8151 4.77027 20.6984 2.05339 20.7568C1.75808 20.6984 2.11246 20.4652 2.34871 20.232Z" transform="translate(51.7705 14.3369)" fill="#333333"/>
<path d="M15.4117 12.7766C15.5889 14.7006 15.5888 17.441 15.5888 18.2573C15.6479 18.782 15.4117 18.782 15.1754 18.8403C12.1042 19.1902 6.19792 18.9569 2.24073 18.9569C1.94542 18.9569 1.94542 18.8403 2.24073 18.4905C2.77229 17.8491 3.54011 16.9746 4.18979 16.2166L5.19385 15.0505C5.48917 14.759 5.66635 14.5257 5.72541 14.4091C5.84354 14.1759 4.83947 6.12974 4.36697 3.09786C4.07166 2.74802 3.30386 2.22327 2.41792 1.69852C1.76823 1.29039 1.00042 0.882249 0.291667 0.47411C-0.00364583 0.299194 -0.180833 0.00766704 0.291667 0.00766704C2.5951 -0.0506384 4.89854 0.240889 12.6948 0.299194C13.2264 0.299194 13.0492 0.590721 12.6948 0.765638C12.0451 1.05717 11.1592 1.4653 10.3323 1.87344C9.2101 2.39819 8.02885 2.98124 7.85167 3.21447C7.43823 6.88771 7.14292 9.9779 6.96573 12.1352C6.90667 13.243 6.8476 14.0593 6.78854 14.7006C6.78854 14.9922 6.78854 15.2254 6.78854 15.4003C6.78854 15.5169 6.78854 15.5752 6.84761 15.6335C6.90667 15.7501 6.96572 15.8085 7.02479 15.8668C7.91072 16.2166 9.09198 16.6247 10.037 16.9746C10.5095 17.1495 10.982 17.2661 11.2773 17.3827C11.4545 17.441 11.5726 17.441 11.6907 17.4993C11.927 17.4993 11.986 17.4993 12.0451 17.4993C12.3404 17.3244 12.931 16.3332 13.4626 15.2837C13.9351 14.4674 14.4076 13.5345 14.762 12.8932C15.1164 12.485 15.3526 12.2518 15.4117 12.7766Z" transform="translate(93.813 15.4368)" fill="#333333"/>
</svg>
