<svg width="46" height="18" viewBox="0 0 46 18" fill="none" xmlns="http://www.w3.org/2000/svg">
<path d="M2.02607e-06 0.720602C2.02607e-06 0.323029 0.323651 -1.01108e-06 0.721992 -1.01108e-06C1.12033 -1.01108e-06 1.44399 0.323029 1.44399 0.720602C1.44399 1.11818 1.12033 1.44121 0.721992 1.44121C0.331949 1.44121 2.02607e-06 1.11818 2.02607e-06 0.720602ZM0.730294 1.33353C1.07054 1.33353 1.3444 1.0602 1.3444 0.720602C1.3444 0.381008 1.07054 0.107677 0.730294 0.107677C0.390044 0.107677 0.116182 0.381008 0.116182 0.720602C0.116182 1.0602 0.390044 1.33353 0.730294 1.33353Z" transform="translate(44.3818 16.5588)" fill="#555555"/>
<path d="M0.107884 0.480402V0.819997H1.01304e-06V-1.01108e-06H0.157675C0.323651 -1.01108e-06 0.448132 0.0745461 0.448132 0.240202C0.448132 0.381009 0.323652 0.455553 0.257261 0.463836L0.506225 0.819997H0.373446L0.13278 0.480402H0.107884ZM0.107884 0.381008H0.182575C0.282161 0.381008 0.348551 0.331313 0.348551 0.240202C0.348551 0.149091 0.282161 0.0993934 0.182575 0.0993934H0.107884V0.381008Z" transform="translate(44.9048 16.8488)" fill="#555555"/>
<path d="M0.721993 0.107676C0.381743 0.107676 0.107884 0.381009 0.107884 0.720603C0.107884 1.0602 0.381743 1.33353 0.721993 1.33353C1.06224 1.33353 1.3361 1.0602 1.3361 0.720603C1.3361 0.381009 1.06224 0.107676 0.721993 0.107676ZM0.721993 -5.05541e-07C1.12033 -5.05541e-07 1.44399 0.323029 1.44399 0.720603C1.44399 1.11818 1.12033 1.44121 0.721993 1.44121C0.323651 1.44121 5.06517e-07 1.11818 5.06517e-07 0.720603C5.06517e-07 0.323029 0.323651 -5.05541e-07 0.721993 -5.05541e-07Z" transform="translate(24.1494 7.12476)" fill="#555555"/>
<path d="M0.107885 0.472119V0.811713H-1.01304e-06V-5.05541e-07H0.157678C0.323654 -5.05541e-07 0.448135 0.0745453 0.448135 0.240201C0.448135 0.381008 0.323652 0.455553 0.257262 0.463836L0.506225 0.819996H0.373444L0.141079 0.480401L0.107885 0.472119ZM0.107885 0.372725H0.182573C0.282159 0.372725 0.348549 0.323028 0.348549 0.231918C0.348549 0.140807 0.282159 0.0911107 0.182573 0.0911107H0.107885V0.372725Z" transform="translate(24.6641 7.41455)" fill="#555555"/>
<path d="M1.73445 -5.05541e-07H42.6806C43.635 -5.05541e-07 44.4151 0.770298 44.4151 1.7311V6.28663C44.4151 7.23915 43.6433 8.01774 42.6806 8.01774H1.73445C0.780086 8.01774 -1.26629e-07 7.24744 -1.26629e-07 6.28663V1.7311C-1.26629e-07 0.770298 0.780086 -5.05541e-07 1.73445 -5.05541e-07ZM0.61411 1.75595V6.26179C0.61411 6.89128 1.12863 7.40481 1.75934 7.40481H42.6558C43.2865 7.40481 43.801 6.89128 43.801 6.26179V1.75595C43.801 1.12646 43.2865 0.612925 42.6558 0.612925H1.75934C1.12863 0.612925 0.61411 1.12646 0.61411 1.75595Z" transform="translate(0 9.89941)" fill="#555555"/>
<path d="M5.06518e-07 5.57432V0H2.23237L2.97096 3.59473L3.77595 0H5.97512V5.57432H4.49794V1.63999L3.60167 5.57432H2.33196L1.46888 1.63171V5.57432H5.06518e-07Z" transform="translate(1.61816 11.1086)" fill="#555555"/>
<path d="M2.43154 5.68199C1.16183 5.68199 -2.53259e-07 5.14361 -2.53259e-07 3.6113V0H1.61826V3.42079C1.61826 4.67149 3.24482 4.67149 3.24482 3.42079V0H4.87139V3.6113C4.87139 5.14361 3.70126 5.68199 2.43154 5.68199Z" transform="translate(7.93359 11.1086)" fill="#555555"/>
<path d="M1.64316 3.83598H-5.06518e-07C0.0165971 5.10325 0.970958 5.799 2.38175 5.82385C3.89213 5.85698 4.87969 5.14466 4.87969 3.99336C4.88798 2.72609 3.86723 2.51074 3.14524 2.27882C2.42324 2.05518 1.68465 2.02205 1.66806 1.60791C1.65146 1.18549 2.19088 1.17721 2.36515 1.17721C2.53943 1.17721 3.03736 1.21034 3.09545 1.81498H4.69711C4.68881 0.638826 3.81744 0.0258998 2.40665 0.00105148C0.896268 -0.0320797 0.0497932 0.721655 0.058092 1.70731C0.0663908 2.69296 0.871373 3.12366 1.59337 3.35558C2.31536 3.57922 3.23652 3.68689 3.22823 4.17558C3.21993 4.598 2.6971 4.63113 2.52283 4.63113C2.35685 4.63113 1.67636 4.68911 1.64316 3.83598Z" transform="translate(12.9297 10.9834)" fill="#555555"/>
<path d="M-5.06518e-07 0H1.70125V5.57432H-5.06518e-07V0Z" transform="translate(17.9497 11.1086)" fill="#555555"/>
<path d="M3.56848 3.56988C3.54358 4.05857 3.25312 4.5224 2.64731 4.53069C2.0249 4.53897 1.66805 3.87634 1.66805 2.92382C1.66805 1.9713 2.0332 1.32525 2.64731 1.32525C3.25312 1.32525 3.49379 1.76423 3.52698 2.17837H5.17014C5.10375 0.960802 4.29047 0 2.63901 0C0.987555 0 1.01304e-06 1.18444 1.01304e-06 2.91554C1.01304e-06 4.65493 0.970958 5.83936 2.63901 5.83108C4.29877 5.8228 5.19504 4.82058 5.20334 3.55332H3.56848V3.56988Z" transform="translate(19.8008 10.9431)" fill="#555555"/>
<path d="M4.50624 5.57432V1.63999L3.60997 5.57432H2.33196L1.47718 1.63171V5.57432H5.06518e-07V0H2.23237L2.97926 3.59473L3.77595 0H6.04151V5.31755L7.91704 0H9.65149L11.4025 5.26785V0H13.054L14.6722 3.14746V0H16.249V5.57432H14.581L12.9378 2.33575V5.57432H9.74277L9.52701 4.77089H7.88384L7.65978 5.57432H4.50624ZM8.1826 3.66927H9.23655L8.74692 1.66484L8.1826 3.66927Z" transform="translate(26.4316 11.1086)" fill="#555555"/>
<path fill-rule="evenodd" clip-rule="evenodd" d="M5.05618 4.78745C4.44207 4.80402 4.05202 4.7626 3.26364 4.79573C3.18895 4.79573 3.17235 4.79573 3.16405 4.78745L3.12256 4.71291C3.06447 4.60523 2.99808 4.43957 2.91509 4.25735C2.8321 4.06685 2.72422 3.8515 2.59144 3.63614C2.31758 3.19716 1.91924 2.74989 1.30512 2.47655L1.23873 2.44342L1.24703 2.51797C1.30513 2.94867 1.33832 3.25514 1.36322 3.48705C1.39641 3.71897 1.42961 3.87634 1.496 3.98402C1.56239 4.09998 1.69517 4.20766 1.87774 4.32362C2.01882 4.41473 2.1848 4.51412 2.37567 4.62179C2.46695 4.67149 2.44206 4.72119 2.37567 4.72119C1.72006 4.70462 0.508441 4.69634 0.0686053 4.69634C-0.0143825 4.69634 -0.0309801 4.64664 0.0686053 4.59695C0.541636 4.38159 0.807198 4.14968 0.823795 3.97574C0.840393 3.8018 0.856991 2.9818 0.848692 2.36888C0.823795 1.17616 0.807198 0.728885 0.782301 0.670906L0.749107 0.629492L0.691014 0.579795L0.525039 0.422422C0.417154 0.323029 0.284374 0.20707 0.17649 0.099394C0.0935019 0.0248489 0.143295 -5.05541e-07 0.17649 -5.05541e-07C0.58313 0.00828228 1.96073 -0.0165656 2.79061 0.0496967C2.98148 0.0662623 3.08106 0.0662618 3.14745 0.0828274C3.20555 0.0911102 3.21385 0.107676 3.23874 0.132525C3.44621 0.397574 3.68688 1.03535 3.47111 1.62343C3.25534 2.20322 2.88189 2.33575 2.02712 2.40201L1.89434 2.41029L2.01052 2.47655C2.1433 2.5511 2.29268 2.68362 2.45866 2.841C2.62463 2.99837 2.79061 3.18887 2.96488 3.37938C3.31343 3.7521 3.67858 4.14139 4.01883 4.31533C4.37568 4.49755 4.73252 4.61351 5.06447 4.67977C5.18066 4.71291 5.18896 4.78745 5.05618 4.78745ZM2.64953 0.521815C2.57484 0.364442 2.50015 0.256766 2.25119 0.331311C1.82795 0.463836 1.4711 0.579795 1.09766 0.74545L1.07276 0.786864C1.08106 0.985651 1.11425 1.62343 1.18894 2.20322L1.23044 2.23635C2.58314 2.2115 3.00638 1.31696 2.64953 0.521815Z" transform="translate(3.77393 4.76404)" fill="#555555"/>
<path fill-rule="evenodd" clip-rule="evenodd" d="M0.250991 0.0248484C0.549747 0.0165656 1.11406 -2.52771e-07 1.66178 -2.52771e-07C2.26759 -2.52771e-07 2.81532 0.00828228 2.9232 0.057979C3.39623 0.265049 3.78627 1.38323 3.32984 1.82221C3.22196 1.92161 3.11407 1.99615 2.97299 2.06241C2.83191 2.12868 2.67424 2.19494 2.48337 2.27777L2.40038 2.3109L2.48337 2.35231C2.66594 2.44342 2.82362 2.48484 2.9398 2.51797C2.99789 2.53453 3.04768 2.5511 3.08918 2.55938C3.13067 2.57595 3.16387 2.59251 3.18046 2.60908C3.83607 3.15574 3.56221 4.48099 3.18876 4.66321C2.82362 4.84543 2.58295 4.88685 2.17631 4.87856C1.76137 4.87028 1.18046 4.82058 0.109913 4.82887C0.0933152 4.82887 0.0767172 4.82887 0.0601196 4.82887C0.00202811 4.82887 -0.0394658 4.79573 0.0601196 4.72947C0.292486 4.58038 0.499955 4.48099 0.674229 4.38988C0.773814 4.34018 0.865102 4.29048 0.931492 4.24079C0.997882 4.19109 1.04767 4.14139 1.05597 4.07513C1.13066 3.54503 1.18045 3.19716 1.21365 2.94867C1.24685 2.69191 1.26344 2.53453 1.26344 2.36888C1.26344 2.20322 1.23855 2.03757 1.19705 1.7808C1.15556 1.52403 1.08917 1.16787 1.00618 0.621209C0.840205 0.480401 0.715724 0.405857 0.574645 0.323029C0.47506 0.26505 0.367176 0.20707 0.242694 0.132525C0.168005 0.0828281 0.159704 0.0331312 0.250991 0.0248484ZM1.51241 2.05413C1.51241 2.06241 1.51241 2.07898 1.52071 2.10383C1.5373 2.12868 1.5539 2.12868 1.5788 2.12868C1.59539 2.12868 1.62029 2.12039 1.63689 2.12039C1.85266 2.05413 2.04353 2.00443 2.2012 1.95474C2.36718 1.90504 2.49996 1.83878 2.59125 1.72282C2.9066 1.34181 2.54146 0.496967 2.33399 0.35616L2.29249 0.347877C2.08502 0.430704 1.93564 0.463836 1.76137 0.538381C1.63689 1.31696 1.5207 1.71454 1.49581 2.02928L1.51241 2.05413ZM1.83606 4.29048C2.2261 4.70462 3.10577 4.72947 2.9149 3.5616C2.78212 2.76645 1.84436 2.34403 1.51241 2.41857C1.42112 2.52625 1.67008 4.10826 1.83606 4.29048Z" transform="translate(14.7861 4.37488)" fill="#555555"/>
<path fill-rule="evenodd" clip-rule="evenodd" d="M0.0512928 5.56686C0.872872 5.32666 1.15503 4.90423 1.39569 4.41555C1.65296 3.89373 1.92682 2.24546 2.11769 0.978192C2.15088 0.771122 2.09279 0.680011 1.90192 0.572335C1.73594 0.481224 1.46208 0.356982 1.01395 0.100216C0.930962 0.0505193 0.922663 0.000822857 1.01395 0.000822857C1.45379 -0.00745993 2.65711 0.0505188 3.37081 0.00910489C3.45379 0.000822099 3.46209 0.0505198 3.37081 0.108499C3.13844 0.249307 2.78159 0.472942 2.6986 0.514355C2.51603 0.605466 2.52433 0.79597 2.54922 0.920212C2.6903 1.59112 2.83138 2.40283 2.96416 3.10687C3.09694 3.81919 3.21313 4.43211 3.32101 4.72201C3.404 4.94565 4.01811 5.19413 5.13845 5.50059C5.21314 5.52544 5.18824 5.54201 5.13845 5.55029C4.37496 5.63312 3.36251 5.56686 3.01396 5.5917C2.85628 5.59999 2.83968 5.56686 2.83968 5.56686C2.83968 5.55857 2.83968 5.55029 2.83968 5.52544C2.84798 5.50059 2.85628 5.48403 2.85628 5.45918C2.88948 5.33494 2.93097 4.99534 2.83139 4.79656C2.78159 4.68888 2.67371 4.64747 2.56582 4.63918C2.51603 4.6309 2.45794 4.6309 2.40815 4.63918L2.27537 4.64747C2.20068 4.64747 2.12599 4.64747 2.0596 4.65575C1.99321 4.66403 1.91852 4.67231 1.87703 4.71373C1.76914 4.81312 1.81893 5.01191 1.87703 5.16928C1.93512 5.31837 2.0264 5.46746 2.09279 5.53373C2.10109 5.55029 2.22557 5.63312 2.09279 5.63312C1.3625 5.62484 0.47453 5.61655 0.0429935 5.60827C-0.0233968 5.61655 -0.00679868 5.58342 0.0512928 5.56686ZM1.91852 3.82747C1.90192 3.90202 1.90192 4.04282 1.94341 4.13393C1.99321 4.24161 2.10939 4.29959 2.28367 4.21676C2.61562 4.05939 2.69031 3.89373 2.66541 3.71979C2.61562 3.34707 2.50773 1.83132 2.40815 1.35092L2.36665 1.12728L2.33346 1.35092C2.11769 2.66788 2.0679 2.96606 1.91852 3.82747Z" transform="translate(17.1357 4.00952)" fill="#555555"/>
<path d="M0.993416 0.696664C0.910428 0.638685 0.429099 0.348787 0.0390562 0.0920207C-0.0273341 0.042324 -0.00243813 -0.00737325 0.0639521 0.000909538C0.69466 0.0671718 2.09715 0.100303 3.35027 0.15H3.43326C3.46645 0.158283 3.47475 0.166566 3.47475 0.174849C3.47475 0.191414 3.47475 0.224545 3.47475 0.274242C3.44986 0.456463 3.41666 0.912016 3.39177 1.36757C3.39177 1.42555 3.33367 1.44211 3.29218 1.36757C3.25069 1.28474 3.19259 1.19363 3.1345 1.08596C3.01832 0.887168 2.89384 0.65525 2.79425 0.464746C2.76936 0.423332 2.73616 0.35707 2.62828 0.406767C2.02247 0.663533 1.89798 0.721512 1.84819 0.771209C1.8067 0.812623 1.7818 0.9203 1.7569 1.06939C1.72371 1.22676 1.69051 1.45868 1.63242 1.76514C1.61583 1.84797 1.64902 1.89767 1.71541 1.92252C1.74031 1.9308 1.7818 1.93908 1.815 1.93908C1.84819 1.93908 1.89798 1.94736 1.93948 1.95565L2.08886 1.9805C2.13035 1.98878 2.16354 1.98878 2.18844 1.98878C2.25483 1.98878 2.28803 1.95565 2.32952 1.89767C2.38761 1.81484 2.54529 1.51666 2.69467 1.24333C2.72786 1.17707 2.79425 1.16878 2.79425 1.24333C2.79425 1.61605 2.79425 2.37807 2.80255 3.01584C2.80255 3.08211 2.73616 3.07382 2.70297 3.01584C2.59508 2.81706 2.51209 2.64312 2.454 2.51059C2.41251 2.42777 2.37931 2.3615 2.35442 2.32009L2.32122 2.26211C2.26313 2.2207 2.24653 2.2207 2.22994 2.2207C2.21334 2.2207 2.19674 2.22898 2.18014 2.23726C2.14695 2.25383 2.10545 2.27868 2.05566 2.30352C1.96437 2.3615 1.83989 2.43605 1.72371 2.49403C1.66562 2.52716 1.64902 2.55201 1.67392 2.66797C1.7818 3.12352 1.86479 3.28089 1.98927 3.74473C2.01417 3.83584 2.04736 3.87725 2.13035 3.91038C2.20504 3.93523 2.32122 3.96008 2.52039 4.02634C2.76106 4.10089 2.89384 4.15059 2.97683 4.15887C3.06811 4.17543 3.11791 4.15887 3.1428 4.08432C3.29218 3.62049 3.38347 3.38857 3.45816 3.18978C3.52455 3.03241 3.57434 2.88332 3.65733 2.64312C3.68222 2.57686 3.74861 2.57686 3.75691 2.64312C3.88969 3.57079 3.8648 3.91039 3.91459 4.17544C3.95608 4.41564 3.8648 4.46533 3.74861 4.46533C2.66147 4.49018 1.01831 4.42392 0.387605 4.4322C0.296319 4.4322 0.304618 4.3825 0.387605 4.33281C0.96852 3.98493 1.1262 3.78614 1.18429 3.71988C1.25898 3.62877 1.31707 2.991 1.34197 2.65968C1.35856 2.4112 1.29217 1.351 1.25898 1.14393C1.24238 0.895451 1.20918 0.837472 0.993416 0.696664Z" transform="translate(0.359375 4.58093)" fill="#555555"/>
<path d="M0.0623253 0.356835C0.253197 0.356835 0.560252 0.373402 0.867307 0.406533C1.29884 0.456229 1.69719 0.555623 1.79677 0.704714C2.06233 1.11057 2.20341 1.49986 2.35279 1.9637C2.50217 2.42753 2.65985 2.95763 2.93371 3.62854L3.01669 3.82732L3.00839 3.61197C2.9835 2.65117 2.9918 1.45845 3.0001 0.514209C3.00839 0.10007 3.08308 0.0503729 3.31545 0.0338073C3.79678 -0.00760664 4.3113 0.000676651 4.70135 0.000676651C4.79263 0.000676651 4.80093 0.0503731 4.70135 0.10007C3.93786 0.45623 3.56441 1.06087 3.37354 1.88087C3.27396 2.31157 3.23246 2.79198 3.19927 3.32207C3.17437 3.85217 3.15777 4.43197 3.14117 5.04489C3.14117 5.14429 3.09968 5.1857 3.08308 5.19398C3.07478 5.20227 3.04989 5.19398 3.04159 5.16085C2.942 4.82954 2.79263 4.27459 2.53536 3.63682C2.2781 2.99905 1.90466 2.27844 1.37353 1.63239L1.29055 1.52471L1.30714 1.65723C1.48142 3.27238 1.6225 3.63682 1.75528 3.86874C1.84656 4.02611 2.13702 4.24146 2.32789 4.36571C2.42748 4.43197 2.39428 4.4651 2.32789 4.4651C1.82167 4.45682 0.925399 4.39884 0.410874 4.39055C0.261496 4.39055 0.344484 4.34086 0.410874 4.29116C0.626642 4.13379 1.08308 3.71136 1.09138 3.4049C1.09967 3.13985 1.00839 2.84167 0.958594 1.1934C0.776021 0.961479 0.352783 0.655017 0.045728 0.45623C-0.0289611 0.406533 -0.00406497 0.365118 0.0623253 0.356835Z" transform="translate(6.83398 4.11743)" fill="#555555"/>
<path d="M0.062144 4.05028C0.120236 4.00887 0.194925 3.95917 0.277913 3.90948C0.493681 3.76867 0.750943 3.60301 0.892022 3.44564C1.15758 3.14746 1.22397 1.0602 1.00821 0.629491C0.958414 0.530098 0.900321 0.438987 0.850529 0.364442C0.800736 0.289897 0.750943 0.231918 0.709449 0.182221C0.684553 0.157373 0.667956 0.132524 0.651358 0.115959C0.56837 0.0248481 0.618163 0.0165656 0.651358 0.0165656C0.667956 0.0165656 0.692852 0.0165656 0.717749 0.0165656C0.817334 0.0165656 0.97501 0.0331317 1.26547 0.0248489C1.59742 0.0248489 1.79659 0.00828304 1.92937 2.52771e-07C1.96257 2.52771e-07 1.99576 2.52771e-07 2.01236 2.52771e-07C2.04555 2.52771e-07 2.07045 0.0248484 2.01236 0.0993934C2.00406 0.107676 1.99576 0.115959 1.98746 0.124242C1.89618 0.231918 1.7385 0.405856 1.50613 0.712319C1.38165 0.877975 1.45634 3.02322 1.7053 3.46221C1.79659 3.62786 1.95427 3.78523 2.10365 3.90119C2.17833 3.95917 2.24472 4.06685 2.30282 4.10826L2.31112 4.11655C2.3941 4.17452 2.37751 4.16624 2.31112 4.16624C2.03726 4.17453 1.55593 4.19109 1.0746 4.15796C0.651359 4.13311 0.3692 4.13311 0.178328 4.14139C0.136834 4.14139 0.0953392 4.14139 0.062144 4.14139C0.0206501 4.14139 -0.0540389 4.12483 0.062144 4.05028Z" transform="translate(9.87988 5.37708)" fill="#555555"/>
<path d="M1.12034 0.71966C0.921165 1.21663 0.248963 1.09239 0.0912864 0.843902C-0.0829881 0.57057 -0.0331954 0.15643 0.464732 0.0239052C0.979256 -0.116902 1.25312 0.396631 1.12034 0.71966Z" transform="translate(10.6636 2.90137)" fill="#555555"/>
<path d="M0.0773018 0.000637685C0.583528 0.0337688 1.91133 0.124879 2.99018 0.124879C3.07316 0.124879 3.07316 0.182859 2.99018 0.224273C2.78271 0.340232 2.56694 0.447908 2.40096 0.539019C2.29308 0.596998 2.19349 0.646695 2.1271 0.688109C2.09391 0.712958 2.06071 0.729523 2.04411 0.746089C2.01092 0.77922 2.00262 0.795785 2.00262 0.812351C1.96113 1.24306 1.84494 2.09618 1.75366 2.87476C1.67067 3.6285 1.59598 4.3491 1.67897 4.44021C1.72876 4.49819 1.85324 4.55617 2.04411 4.63071C2.24329 4.71354 2.51714 4.81294 2.89059 4.95374C2.92378 4.96203 3.42171 4.12547 3.60429 3.81072C3.63748 3.74446 3.70387 3.69476 3.70387 3.81072C3.72047 4.22486 3.73707 4.86263 3.77026 5.25192C3.77856 5.33475 3.76196 5.3596 3.75366 5.3596C3.73707 5.37617 3.70387 5.37617 3.67897 5.37617C2.38436 5.35132 1.78685 5.33475 0.409253 5.34304C0.384357 5.34304 0.276473 5.34304 0.409253 5.24364C0.683113 5.03657 1.16444 4.64728 1.24743 4.55617C1.40511 4.37395 1.41341 4.00122 1.37191 3.39658C1.33042 2.79194 1.23913 1.93053 1.16444 0.746089C1.15614 0.671543 0.890582 0.522453 0.0690025 0.100031C0.010911 0.0668997 -0.0554788 -0.0076451 0.0773018 0.000637685Z" transform="translate(22.2295 4.10913)" fill="#555555"/>
<path d="M0.47572 4.29877C0.625098 4.15796 0.840868 3.92604 0.948752 3.76867C0.981947 3.71897 0.998543 3.45392 1.00684 3.17231C1.01514 2.88241 1.01514 2.5511 1.02344 2.34403C1.03174 1.92161 0.857466 0.588078 0.832569 0.546664C0.824271 0.530099 0.807673 0.521816 0.791075 0.50525L0.716384 0.455553C0.658293 0.422422 0.583604 0.381008 0.508915 0.331311C0.351238 0.240201 0.152067 0.132525 0.0109878 0.0331317C-0.0139086 0.00828329 0.00269002 -2.52771e-07 0.0690803 -2.52771e-07C0.981946 -2.52771e-07 2.74129 0 2.94046 0.0248484C2.94876 0.0248484 2.95706 0.0331317 2.95706 0.0331317C2.95706 0.0331317 2.95706 0.0414142 2.95706 0.049697C2.95706 0.0993937 2.95706 0.248484 2.94876 0.463836C2.94046 0.687472 2.94046 0.977368 2.94046 1.25898C2.94046 1.39151 2.89897 1.34181 2.84087 1.25898C2.71639 1.07676 2.60851 0.886259 2.51722 0.737168C2.46743 0.654341 2.42593 0.579795 2.38444 0.521816C2.35125 0.463836 2.30975 0.414139 2.27656 0.397574C2.25166 0.381008 2.22676 0.381008 2.20187 0.381008C2.17697 0.381008 2.15208 0.389291 2.11888 0.397574C2.06079 0.414139 1.9778 0.438988 1.87821 0.463836C1.77863 0.496967 1.70394 0.513533 1.64585 0.530099C1.61265 0.538382 1.58776 0.546664 1.56286 0.56323C1.53796 0.579795 1.52137 0.604643 1.51307 0.637774C1.46328 0.944237 1.2973 1.68969 1.2807 1.86363C1.2724 1.92161 1.3056 1.95474 1.35539 1.9713C1.38029 1.97959 1.40518 1.97959 1.43838 1.98787L1.54626 2.00443C1.62925 2.01272 1.69564 2.021 1.73714 2.02928C1.77863 2.02928 1.82842 2.02928 1.85332 1.97959C1.9861 1.71454 2.13548 1.44949 2.24336 1.25898C2.30975 1.13474 2.35125 1.12646 2.34295 1.25898C2.31805 1.68969 2.29316 2.63393 2.28486 3.05635C2.28486 3.21372 2.23506 3.14746 2.18527 3.05635C2.04419 2.75817 1.9695 2.57595 1.82842 2.3109C1.80353 2.2612 1.76203 2.24464 1.70394 2.2612C1.66245 2.26948 1.60435 2.30261 1.51307 2.33575L1.39689 2.37716C1.36369 2.38544 1.33879 2.40201 1.3222 2.41029C1.2724 2.43514 1.26411 2.46827 1.2724 2.51797C1.46328 3.23857 1.64585 3.89291 1.71224 3.93432C1.83672 4.00059 1.93631 4.07513 2.01929 4.11654C2.06079 4.14139 2.09398 4.15796 2.12718 4.17452C2.14378 4.18281 2.15207 4.18281 2.16867 4.19109C2.18527 4.19109 2.20187 4.19109 2.21846 4.18281C2.35125 4.08341 2.48403 3.83493 2.60851 3.56988C2.6998 3.37109 2.79938 3.14746 2.88237 2.95695C2.93216 2.84928 2.97366 2.80786 2.98195 2.95695C3.00685 3.37109 3.04005 4.26564 3.03175 4.35675C3.03175 4.38159 3.03175 4.39816 3.03175 4.41473C3.02345 4.43129 2.99855 4.43957 2.95706 4.44786C2.81598 4.45614 1.04004 4.43129 0.467421 4.43129C0.351238 4.39816 0.425927 4.34846 0.47572 4.29877Z" transform="translate(11.2505 4.45764)" fill="#555555"/>
<path d="M3.20809 2.71756C3.24129 3.12342 3.24129 3.71149 3.24958 3.87715C3.25788 3.98483 3.21639 3.99311 3.1666 4.00139C2.51929 4.08422 1.28277 4.02624 0.444596 4.02624C0.386505 4.02624 0.386505 4.00139 0.444596 3.92685C0.560779 3.79432 0.718456 3.60382 0.859536 3.44645L1.0753 3.20624C1.13339 3.13998 1.17489 3.09028 1.19149 3.06544C1.21638 3.02402 1.00891 1.30949 0.909326 0.663428C0.851235 0.588883 0.68526 0.481206 0.502686 0.365247C0.361607 0.282419 0.203931 0.191309 0.0628519 0.100198C-0.0035384 0.0670671 -0.0367335 0.000805033 0.0628519 0.000805033C0.544181 -0.00747775 1.02551 0.050502 2.66867 0.0670676C2.77655 0.0670676 2.74336 0.125047 2.66867 0.166461C2.53589 0.22444 2.34502 0.315551 2.17074 0.398379C1.93008 0.514338 1.68111 0.638579 1.65622 0.679993C1.57323 1.46686 1.50684 2.11292 1.47364 2.57675C1.45705 2.80867 1.44045 2.99089 1.44045 3.11513C1.44045 3.1814 1.44045 3.23109 1.44045 3.26422C1.44045 3.28079 1.44045 3.29735 1.44875 3.31392C1.45705 3.33877 1.47365 3.35533 1.48194 3.35533C1.67282 3.4216 1.91348 3.52099 2.12095 3.59553C2.22053 3.62867 2.31182 3.6618 2.38651 3.68665C2.41971 3.69493 2.4529 3.70321 2.4778 3.71149C2.51929 3.71149 2.53589 3.71149 2.55249 3.70321C2.61058 3.67008 2.73506 3.45473 2.85954 3.23938C2.95913 3.06544 3.05871 2.86665 3.1334 2.72584C3.1417 2.6513 3.19149 2.6016 3.20809 2.71756Z" transform="translate(20.1035 4.68872)" fill="#555555"/>
<path d="M21.7262 4.50733C21.5768 4.49905 20.7967 4.5239 20.2656 4.55703C20.0001 4.57359 20.0582 4.89662 19.8922 4.91319C19.8922 4.91319 19.5602 4.99601 19.0291 5.12026H19.3445H19.0291C18.9212 5.1451 18.8133 5.16995 18.6972 5.1948C18.6723 5.16167 18.6391 5.13682 18.6142 5.12026H18.3984C18.3237 5.15339 18.249 5.21965 18.1494 5.32733C18.1494 5.32733 16.9627 5.60894 16.1245 5.78288C16.3569 5.50955 16.4482 5.2942 16.4565 5.12854C16.4648 4.65642 15.6764 4.64814 14.9378 5.10369C14.9378 5.10369 14.581 4.73925 14.0913 4.4742C14.0913 4.4742 14.166 4.29198 14.2407 3.98552C14.3154 3.68733 14.3818 3.2732 14.3818 2.79279C14.6391 2.34552 13.7511 1.13624 13.3278 1.51724C12.7967 1.393 12.8714 1.28533 12.2739 1.83199C11.7677 2.29583 11.9005 2.81764 11.9751 3.32289C12.0166 3.63764 11.859 3.76188 12.1494 3.97723C12.2573 4.05178 12.415 4.14289 12.6639 4.25056C11.8922 4.4245 11.5104 4.55703 11.0955 4.65642C10.8714 4.7144 10.7469 4.85521 10.5312 5.11197C10.3237 5.36874 10.0415 5.73318 9.5187 6.255H9.75107H9.5187C9.46061 6.31298 9.39422 6.37096 9.32783 6.43722C9.33613 6.37096 9.33613 6.31298 9.34443 6.255H9.25314H9.34443C9.36932 5.87399 9.33613 5.51783 9.05397 5.12026C8.8133 4.78066 8.37347 4.40794 7.62658 3.98552C7.62658 3.98552 7.62658 3.98551 7.62658 3.97723C7.75936 3.74531 8.1743 3.66249 8.21579 3.4637C8.09961 2.95845 8.31538 2.61886 8.29878 2.33724C8.24069 1.29361 7.77596 1.27704 7.57679 1.32674C7.26973 0.771794 6.72201 1.12795 6.27388 1.48411C5.82574 1.83199 6.1245 2.13845 5.92533 2.5029C5.58508 3.12411 6.20749 3.43057 6.0996 3.90269C5.55188 3.91925 5.22823 3.93582 5.02076 3.97723C4.7303 4.03521 4.66391 4.12632 4.53943 4.30854L4.22408 3.97723L3.28631 2.9833C3.32781 2.59401 3.361 2.54431 2.89627 2.55259C2.89627 2.55259 2.44814 2.06391 2.14108 1.70775L1.95021 1.4924C1.90872 1.40957 2.11619 1.06169 1.95851 0.954015C1.75934 0.763511 1.14523 0.291392 0.912862 0.109171C0.348545 -0.321534 -0.356852 0.630986 0.207465 1.07826C0.414935 1.03684 0.365142 1.21906 0.531117 1.58351C0.78838 2.20472 0.871368 1.64977 1.24481 2.17987L1.361 2.35381L1.68465 2.85077C1.75934 3.28148 1.63486 3.62935 1.85892 3.91925C1.87552 3.93582 1.88382 3.96067 1.90042 3.97723H1.97511H1.90042C2.14108 4.31683 2.0249 4.44935 2.28216 4.93804C2.25726 4.9546 2.24897 5.02086 2.26556 5.11197H2.41494H2.26556C2.29876 5.35218 2.43154 5.79945 2.58092 6.24672C2.65561 6.48692 2.73859 6.72712 2.81328 6.93419C2.87967 7.13297 2.94606 7.28206 3.02905 7.38146C3.23652 7.64651 3.51868 7.59681 4.01661 7.48913C4.01661 7.48913 4.01661 7.78731 4.34026 8.35054C4.32366 8.47478 4.34026 9.07115 4.10789 9.65922H8.1328C8.19919 9.38589 8.1328 9.25337 8.21579 9.08771C8.39007 8.7564 8.73862 8.38367 9.00418 7.87014C9.40252 8.29256 10.1743 8.65701 10.9295 8.93862C11.3029 9.07943 11.278 8.98003 11.0374 9.65922H14.8714C14.6971 8.93034 14.5893 8.9469 14.5893 8.84751C14.5893 8.71499 14.6473 8.65701 15.3196 8.66529C16.1909 9.0463 16.083 9.38589 16.9544 8.5162C17.1785 8.28428 17.6847 7.78731 18.1162 7.38146C18.4233 7.09156 18.6972 6.85136 18.8133 6.79338C18.9378 6.7354 18.9544 6.59459 19.1038 6.23843C19.1287 6.18874 19.1453 6.13076 19.1785 6.07278C19.7428 5.90712 19.8839 5.84914 20.0416 5.79944C20.5478 5.65864 20.6806 6.04793 21.0706 5.87399C21.3113 5.76631 21.5436 5.39359 21.8258 5.5344C22.0914 5.4847 22.2241 5.29419 22.2407 5.09541C22.2324 4.83864 22.0582 4.53218 21.7262 4.50733ZM6.38176 2.213C6.91288 2.12189 7.22824 1.89825 7.22824 1.89825C7.33612 2.20472 7.36102 2.44492 7.60168 2.62714C7.61828 3.14067 7.30293 3.76188 6.95438 3.97723C6.83819 4.05178 6.71371 4.07663 6.59753 4.03521C6.56433 4.02693 6.53114 4.00208 6.49794 3.97723C6.24898 3.7536 6.1162 3.05784 6.38176 2.213ZM1.59336 2.13845C1.53527 2.04734 1.46888 1.98936 1.41079 1.90654C1.12033 1.48411 0.979252 1.84027 0.821575 1.54209C0.680496 1.28533 0.655601 0.862904 0.348546 0.829773C0.199168 0.688966 0.240661 0.465331 0.348546 0.365938C0.464729 0.258262 0.58091 0.249979 0.780081 0.382503C0.979252 0.515028 1.42739 0.896035 1.65145 1.07826C1.87552 1.26048 1.49378 1.34331 1.69295 1.6332C1.73444 1.69118 1.80913 1.76573 1.90042 1.88169C2.20747 2.213 2.53942 2.54431 2.53942 2.54431C2.42324 2.72653 2.17428 2.81764 2.17428 2.81764L1.59336 2.13845ZM7.74276 7.38974C7.71787 7.53883 7.67637 7.68792 7.61828 7.81216C7.57679 7.81216 7.10375 7.62166 6.7552 7.38974C6.54773 7.25722 6.38176 7.10813 6.36516 6.9756C6.34027 6.80995 6.22408 6.4952 6.07471 6.24672C5.90043 5.9651 5.69296 5.7746 5.53528 6.02308C5.32782 5.83258 5.51039 5.41844 5.24483 5.25278C4.97097 5.08713 4.91288 5.50955 4.91288 5.50955C4.84649 5.55096 4.68051 5.9154 4.68881 6.13076C4.68881 6.17217 4.68881 6.21358 4.68881 6.24672H4.92118C4.92118 6.23015 4.92118 6.2053 4.92118 6.17217C4.90458 5.89884 4.97927 6.05621 5.02906 5.82429C5.07885 5.59238 5.18673 5.435 5.21993 5.97338C5.22823 6.07278 5.24483 6.16389 5.26142 6.24672C5.38591 6.77681 5.73446 6.98388 5.66807 6.64429C5.56848 6.08934 5.90043 6.26328 5.90043 6.39581C5.89213 6.58631 6.0996 6.67742 6.0913 6.95903C6.083 7.24065 6.19089 7.23237 6.21578 7.35661C6.20748 7.36489 6.20749 7.38146 6.19919 7.38974H6.48135H6.19919C6.04981 7.65479 5.75935 7.6962 5.64317 7.71277C5.58508 7.66307 5.46889 7.5554 5.3942 7.38974H5.32782H5.3942C5.38591 7.37318 5.37761 7.35661 5.37761 7.34004C5.30292 7.14126 5.07885 6.91762 5.00416 6.69399C4.86308 6.3047 4.92117 6.41237 4.92947 6.24672H4.69711C4.68051 6.47035 4.58922 6.47035 4.7386 6.71055C4.85478 6.89277 4.97927 7.17439 5.12035 7.38974C5.18674 7.49742 5.25313 7.58853 5.32782 7.64651C5.25313 7.92812 5.11205 7.87842 6.36516 8.74812C5.48549 8.9966 4.7552 8.18489 4.7386 7.48085C4.7386 7.44772 4.7386 7.42287 4.7386 7.39802C4.71371 6.85136 4.50624 6.66914 4.12449 6.57803C3.88383 6.52005 3.76764 6.37924 3.72615 6.26328C3.67636 6.11419 3.75934 5.98995 3.89212 6.07278C4.17428 6.23015 4.58922 6.07278 4.34026 5.62551L3.95852 5.12854H3.83403H3.95852L3.27802 4.22572C3.26142 4.14289 3.26142 4.06834 3.26972 3.9938H3.02075C2.98756 4.39965 3.13694 4.9546 3.13694 4.9546C2.78009 5.12854 2.58922 5.01258 2.58922 5.01258C2.30706 4.7641 2.43154 4.64814 2.23237 4.06834C2.22407 4.03521 2.20747 4.01036 2.19087 3.98552H2.10789H2.19087C2.09959 3.82814 1.94191 3.80329 2 3.55481C2.0166 3.48855 1.97511 3.36431 2.07469 3.38087C2.19917 3.60451 2.34025 3.95238 2.35685 3.35602C2.35685 3.07441 2.40664 3.00815 2.722 2.84249C3.15353 2.60229 3.15353 3.02471 2.95436 3.10754C2.97926 3.25663 3.17013 3.39744 3.04565 3.78673C3.02905 3.84471 3.02075 3.91097 3.01246 3.97723H3.26142C3.28632 3.80329 3.3527 3.6542 3.3527 3.5134C3.3527 3.5134 3.55188 3.72047 3.79254 3.97723C4.14939 4.34996 4.58922 4.81379 4.62242 4.84692C4.83819 4.89662 4.97097 4.7144 4.88798 4.40794C4.85478 4.29198 4.99586 4.20087 5.16184 4.20915C5.52699 4.234 5.59337 4.79723 5.80084 5.11197C5.85064 5.1948 5.91703 5.25278 6.00002 5.28591C6.52284 5.50126 7.22824 5.60894 7.56849 6.24672H7.66807H7.56849C7.61828 6.33783 7.65977 6.43722 7.68467 6.5449C7.75106 6.80994 7.77596 7.11641 7.74276 7.38974ZM12.8797 2.84249C13.3029 2.60229 13.3942 2.19643 13.6266 1.99765C13.859 2.25441 14.1079 2.79279 14.1079 2.79279C14.1079 2.79279 14.1494 3.39744 13.9585 3.98552C13.9171 4.11804 13.859 4.25056 13.7843 4.37481C13.7013 4.4742 13.3361 4.54046 13.0374 4.25885C12.971 4.20087 12.9212 4.10147 12.888 3.98552C12.7967 3.67077 12.8133 3.2235 12.8797 2.84249ZM13.0872 7.38974H13.0125C12.9627 7.456 12.8963 7.53055 12.8216 7.61338C12.5976 7.87014 13.0125 8.0358 13.8673 7.7459C14.1743 7.63822 13.8673 7.94469 13.859 8.06893C13.8507 8.29256 13.7096 8.21802 13.693 8.32569C13.6681 8.49963 13.3444 8.61559 12.3237 8.63216C12.1245 8.52448 11.9834 8.276 12.1079 7.85358C12.5561 7.6962 12.5063 7.56368 12.7303 7.39802C12.7718 7.36489 12.8299 7.33176 12.9046 7.29035C13.137 7.18267 13.1204 7.25722 13.0125 7.39802L13.0872 7.38974ZM16.3403 7.2158C16.3403 7.2158 16.1245 7.14954 16.0332 7.00045C16.0332 7.00045 16.3652 6.90106 16.971 6.72712C16.8631 6.94247 16.3403 7.2158 16.3403 7.2158ZM15.7843 6.76025C15.3859 6.86792 15.2532 7.16611 15.3113 7.38974H16.6971H15.3113C15.3444 7.53055 15.4606 7.64651 15.6183 7.67135C16.083 7.72105 16.166 7.35661 16.3735 7.59681C16.5312 7.77075 16.3403 8.1766 15.6183 8.35054C14.9959 8.49963 14.498 8.276 13.9585 8.84751C13.5021 9.34448 12.4399 9.44387 12.1411 9.16226C12.0415 9.17054 12.1079 8.82266 12.1992 8.83095C12.9876 8.89721 13.6681 8.72327 13.9171 8.44994C14.1411 8.20145 14.4648 7.20752 13.8756 7.43944C13.4191 7.61338 13.2034 7.53883 13.2034 7.53883C13.2366 7.48913 13.2615 7.43944 13.2863 7.38974H13.2449H13.2863C13.4025 7.08328 13.2283 6.80994 13.0042 6.95903C12.7552 7.13297 12.6556 7.09156 12.4897 7.19095C12.3486 7.27378 12.3984 7.29035 12.2739 7.39802C12.249 7.41459 12.2158 7.43944 12.1743 7.47257C11.859 7.48913 11.5851 7.44772 11.3942 7.39802H11.0291H11.3942C11.2117 7.35661 11.1121 7.30691 11.1121 7.30691C11.1951 6.86793 11.4523 6.4952 11.8009 6.255H11.0374H11.8009C12.1411 6.02308 12.5644 5.92369 12.9959 6.03136C14.0332 6.28813 14.4731 5.90712 15.0374 5.42672C15.22 5.26935 15.4108 5.16995 15.5768 5.11197H14.722H15.5768C15.8175 5.02915 16.0249 5.03743 16.0996 5.11197C16.166 5.16995 16.1411 5.27763 15.9835 5.41844C15.5934 5.76631 15.5436 5.9651 15.7262 6.1556C16.3486 6.03136 17.6017 5.73318 17.6017 5.73318C17.6432 6.11419 17.4357 6.21358 17.4357 6.21358C17.4357 6.21358 17.4025 6.23015 17.3445 6.24672C17.1038 6.34611 16.4648 6.57803 15.7843 6.76025ZM18.8714 6.255C18.8382 6.32126 18.7304 6.37096 18.6806 6.48692C18.6308 6.62772 18.4233 6.60287 18.0747 7.04186C17.9088 7.32348 17.1785 7.05843 17.3196 6.79338C17.61 6.47035 17.7179 6.38752 17.7926 6.24672H17.61H17.7926C17.8341 6.16389 17.8673 6.06449 17.9088 5.87399C18.0499 5.32733 18.1909 5.83258 18.2407 5.75803C18.2407 5.75803 18.2905 5.61722 18.3486 5.42672C18.4897 4.99601 18.8631 5.65864 18.4897 6.24672H18.5561H18.4897C18.4731 6.27156 18.4648 6.28813 18.4482 6.31298C18.4565 6.37096 18.5312 6.31298 18.6225 6.24672C18.722 6.18045 18.8382 6.10591 18.888 6.2053C18.8797 6.23015 18.8797 6.24672 18.8714 6.255ZM21.9171 5.11197C21.8922 5.17824 21.8507 5.2445 21.776 5.26935C21.6349 5.20308 21.5353 5.18652 21.386 5.28591C21.0706 5.4847 20.8631 5.74975 20.5644 5.57581C20.3071 5.42672 20.1328 5.47642 19.942 5.5344C19.61 5.62551 18.9212 5.81601 18.9212 5.81601C18.8631 5.85743 18.8216 5.435 18.9378 5.435C19.2283 5.37702 19.6017 5.26935 19.8424 5.21137C19.942 5.18652 20.0167 5.16167 20.0665 5.12854H19.9586H20.0665C20.2822 5.0043 20.166 4.83036 20.4233 4.81379C20.7636 4.78066 21.5187 4.73097 21.693 4.75581C21.8922 4.77238 21.9669 4.97117 21.9171 5.11197Z" transform="translate(23.7593)" fill="#555555"/>
<path d="M-2.02607e-06 0.0310602H0.215769C0.149379 -0.0103537 0.0829858 -0.0103537 -2.02607e-06 0.0310602Z" transform="translate(42.1577 5.08923)" fill="#555555"/>
</svg>
