<svg width="46" height="12" viewBox="0 0 46 12" fill="none" xmlns="http://www.w3.org/2000/svg">
<path fill-rule="evenodd" clip-rule="evenodd" d="M9.05543 8.43973C7.96423 8.46159 7.25161 8.396 5.84864 8.46159C5.71502 8.46159 5.67048 8.46159 5.67048 8.43973L5.60368 8.30854C5.49233 8.11176 5.38098 7.82752 5.2251 7.49955C5.06921 7.17158 4.89105 6.77802 4.64609 6.40632C4.15616 5.64106 3.44354 4.85394 2.33008 4.37292L2.21873 4.32919L2.241 4.46037C2.35234 5.22563 2.39688 5.77225 2.46369 6.16581C2.5305 6.55937 2.57504 6.84361 2.68639 7.04039C2.79773 7.23717 3.0427 7.43396 3.37674 7.6526C3.6217 7.80565 3.93347 7.98057 4.26751 8.17735C4.44567 8.26481 4.37886 8.35227 4.26751 8.35227C3.08723 8.3304 0.927103 8.30854 0.125405 8.30854C-0.0304812 8.30854 -0.0527506 8.22108 0.125405 8.13362C0.971642 7.76192 1.46157 7.3465 1.48384 7.04039C1.50611 6.73429 1.55064 5.29123 1.52838 4.198C1.48384 2.099 1.46157 1.31187 1.41703 1.20255L1.35022 1.13696L1.21661 1.02763L0.904833 0.743396C0.704409 0.568479 0.481714 0.371697 0.28129 0.174916C0.125404 0.0437288 0.214481 -1.66813e-07 0.28129 -1.66813e-07C1.01618 0.0218644 3.46581 -0.0218644 4.95786 0.0874585C5.2919 0.109323 5.49233 0.131187 5.60368 0.153052C5.69275 0.174917 5.73729 0.196782 5.75956 0.240511C6.13814 0.721531 6.56126 1.83662 6.18268 2.86426C5.8041 3.89189 5.11375 4.1324 3.59943 4.24173L3.35447 4.26359L3.55489 4.37292C3.79986 4.5041 4.06709 4.74461 4.35659 5.02885C4.64609 5.31309 4.95786 5.64106 5.26963 5.96903C5.89318 6.62497 6.56126 7.32463 7.16253 7.63074C7.80835 7.9587 8.43189 8.15549 9.03316 8.26481C9.27813 8.3304 9.27813 8.43973 9.05543 8.43973ZM4.73517 0.918312C4.60155 0.634073 4.46794 0.459156 4.02255 0.590343C3.26539 0.830854 2.61958 1.02764 1.95149 1.31187L1.90696 1.37747C1.92923 1.7273 1.97376 2.86426 2.12965 3.87003L2.19646 3.93562C4.60155 3.91376 5.35871 2.33951 4.73517 0.918312Z" transform="translate(6.16162 3.29797)" fill="#555555"/>
<path fill-rule="evenodd" clip-rule="evenodd" d="M0.399474 0.0437295C0.93394 0.0218649 1.95833 1.66813e-07 2.91592 1.66813e-07C4.00712 1.66813e-07 4.98697 0.0218642 5.18739 0.087458C6.03363 0.459156 6.72398 2.42697 5.92229 3.19223C5.74413 3.36715 5.52143 3.49833 5.27647 3.60765C5.03151 3.71698 4.74201 3.8263 4.40797 3.97935L4.25208 4.04495L4.40797 4.11054C4.74201 4.26359 5.00924 4.35105 5.23193 4.39478C5.34328 4.41665 5.43236 4.43851 5.49917 4.48224C5.56597 4.5041 5.63278 4.52597 5.67732 4.5697C6.8576 5.53174 6.36767 7.87125 5.69959 8.19922C5.03151 8.52718 4.60839 8.59278 3.89577 8.59278C3.16088 8.59278 2.11422 8.48346 0.199051 8.50532C0.176782 8.50532 0.132241 8.50532 0.109972 8.50532C-0.00137534 8.50532 -0.0681835 8.43973 0.109972 8.33041C0.53309 8.06803 0.911672 7.89311 1.20117 7.74006C1.37933 7.6526 1.53521 7.56514 1.66883 7.47769C1.78018 7.39023 1.86925 7.30277 1.89152 7.19345C2.02514 6.25327 2.11422 5.64106 2.18103 5.20377C2.24783 4.74461 2.2701 4.46037 2.2701 4.17614C2.2701 3.8919 2.22557 3.58579 2.13649 3.12663C2.06968 2.66748 1.95833 2.03341 1.80245 1.07136C1.51294 0.830854 1.26798 0.699667 1.04529 0.546615C0.86713 0.437292 0.688977 0.349833 0.466283 0.218646C0.243589 0.131188 0.221319 0.0437295 0.399474 0.0437295ZM2.64868 3.62952C2.64868 3.65139 2.64868 3.67325 2.67095 3.71698C2.69322 3.76071 2.73776 3.76071 2.76003 3.76071C2.7823 3.76071 2.82684 3.76071 2.87138 3.73884C3.24996 3.60766 3.60627 3.54206 3.89577 3.4546C4.18527 3.36715 4.43023 3.23596 4.60839 3.03918C5.16512 2.36137 4.51931 0.874583 4.163 0.634072H4.0962C3.71762 0.787124 3.45038 0.830854 3.13861 0.962041C2.91592 2.33951 2.71549 3.03918 2.67095 3.58579L2.64868 3.62952ZM3.24996 7.56514C3.94031 8.28668 5.52144 8.3304 5.18739 6.27513C4.94243 4.8758 3.27223 4.1324 2.67095 4.26359C2.4928 4.43851 2.93819 7.23718 3.24996 7.56514Z" transform="translate(25.9536 2.62012)" fill="#555555"/>
<path fill-rule="evenodd" clip-rule="evenodd" d="M0.092051 9.82014C1.56183 9.38284 2.07403 8.63945 2.49715 7.78673C2.9648 6.86842 3.45473 3.96043 3.78877 1.73024C3.83331 1.35855 3.74423 1.20549 3.41019 1.00871C3.12069 0.833797 2.60849 0.637015 1.82906 0.177859C1.67318 0.0904006 1.67318 0.00294244 1.82906 0.00294244C2.60849 -0.0189221 4.76862 0.0904012 6.06025 0.0248075C6.21614 0.0248075 6.21614 0.0904011 6.06025 0.199724C5.63713 0.440234 5.01359 0.855661 4.8577 0.921255C4.52366 1.07431 4.54593 1.42414 4.59047 1.64279C4.8577 2.82347 5.10266 4.26654 5.32536 5.51282C5.54805 6.7591 5.77075 7.85233 5.97117 8.35521C6.12706 8.74877 7.21826 9.18607 9.2225 9.73268C9.35612 9.77641 9.31158 9.79827 9.2225 9.82014C7.86407 9.97319 6.03798 9.842 5.41444 9.88573C5.12493 9.9076 5.10266 9.842 5.10266 9.842C5.10266 9.82014 5.10266 9.79827 5.10266 9.77641C5.12493 9.73268 5.12493 9.68895 5.1472 9.66709C5.19174 9.44844 5.28082 8.8581 5.10266 8.50826C5.01359 8.31148 4.81316 8.24589 4.63501 8.22402C4.54593 8.22402 4.43458 8.22402 4.3455 8.22402L4.12281 8.24589C3.98919 8.24589 3.85558 8.24589 3.72196 8.26775C3.61062 8.26775 3.477 8.31148 3.38792 8.37708C3.1875 8.55199 3.27658 8.90183 3.38792 9.18607C3.49927 9.44844 3.65515 9.71082 3.7665 9.842C3.78877 9.86387 4.01146 10.0169 3.7665 10.0169C2.45261 9.99505 0.849211 9.99505 0.092051 9.97319C-0.0415654 9.88573 -0.019296 9.842 0.092051 9.82014ZM3.43246 6.73723C3.41019 6.86842 3.41019 7.10893 3.477 7.28385C3.56608 7.48063 3.7665 7.56809 4.07827 7.41503C4.67955 7.15266 4.79089 6.84655 4.76862 6.54045C4.67955 5.88451 4.47912 3.19517 4.30097 2.36432L4.21189 1.97075L4.14508 2.36432C3.81104 4.68196 3.69969 5.20671 3.43246 6.73723Z" transform="translate(30.1123 1.98315)" fill="#555555"/>
<path d="M1.78887 1.22781C1.63299 1.11849 0.764481 0.615606 0.0741297 0.15645C-0.0594866 0.0689919 0.00732173 -0.0184666 0.118669 0.00339797C1.25441 0.112721 3.77085 0.178315 6.02006 0.265773H6.17594C6.24275 0.287638 6.24275 0.287638 6.24275 0.309502C6.24275 0.353232 6.24275 0.396961 6.24275 0.484419C6.19821 0.812388 6.15368 1.62138 6.08687 2.4085C6.08687 2.51783 5.97552 2.53969 5.90871 2.4085C5.8419 2.27732 5.73056 2.1024 5.64148 1.90562C5.44105 1.55578 5.19609 1.14036 5.04021 0.812388C4.99567 0.724929 4.92886 0.637471 4.7507 0.703065C3.6595 1.16222 3.43681 1.24968 3.34773 1.33714C3.28092 1.40273 3.23638 1.59951 3.19185 1.86189C3.14731 2.14613 3.0805 2.53969 2.96915 3.0863C2.94688 3.23936 2.99142 3.32681 3.12504 3.37054C3.16958 3.39241 3.23638 3.39241 3.30319 3.39241C3.37 3.39241 3.43681 3.41427 3.52589 3.41427L3.79312 3.458C3.85993 3.458 3.92674 3.47987 3.97127 3.47987C4.08262 3.47987 4.14943 3.41427 4.21624 3.30495C4.30532 3.1519 4.61709 2.62715 4.86205 2.14613C4.92886 2.0368 5.04021 2.01494 5.04021 2.14613C5.04021 2.80206 5.04021 4.15767 5.06248 5.27276C5.06248 5.38208 4.95113 5.38208 4.88432 5.27276C4.68389 4.92293 4.55028 4.61683 4.43893 4.37631C4.37212 4.22326 4.30532 4.11394 4.26078 4.02648L4.19397 3.98275C4.10489 3.89529 4.06035 3.91716 4.03808 3.91716C4.01581 3.91716 3.99354 3.93902 3.94901 3.93902C3.8822 3.96089 3.81539 4.00462 3.72631 4.04835C3.54816 4.1358 3.34773 4.26699 3.12504 4.39818C3.01369 4.46377 2.99142 4.5075 3.03596 4.70428C3.23638 5.51327 3.39227 5.79751 3.61496 6.6065C3.6595 6.75955 3.72631 6.84701 3.8822 6.89074C4.01581 6.93447 4.21624 6.9782 4.59482 7.08752C5.01794 7.21871 5.2629 7.30617 5.41879 7.32803C5.57467 7.3499 5.66375 7.32803 5.70829 7.19684C5.97552 6.36599 6.13141 5.97243 6.28729 5.62259C6.39864 5.33836 6.50999 5.07598 6.6436 4.66055C6.68814 4.55123 6.79949 4.55123 6.82176 4.66055C7.04445 6.3004 7.02218 6.89074 7.11126 7.37176C7.17807 7.78719 7.02218 7.87465 6.82176 7.87465C4.86205 7.91838 1.92249 7.80905 0.786751 7.83092C0.608595 7.83092 0.630865 7.74346 0.786751 7.656C1.83341 7.04379 2.12291 6.69396 2.21199 6.56277C2.34561 6.40972 2.45696 5.27276 2.50149 4.70428C2.52376 4.26699 2.41242 2.4085 2.36788 2.0368C2.25653 1.57765 2.18972 1.49019 1.78887 1.22781Z" transform="translate(0 2.96655)" fill="#555555"/>
<path d="M0.11204 0.647149C0.446081 0.647149 1.00282 0.669014 1.55955 0.734608C2.33898 0.822066 3.0516 0.996982 3.22976 1.25936C3.69741 1.98089 3.96465 2.65869 4.23188 3.48954C4.49911 4.3204 4.78861 5.23871 5.27854 6.4194L5.43443 6.76923V6.37567C5.38989 4.67023 5.38989 2.57123 5.41216 0.909524C5.41216 0.166129 5.56804 0.100535 5.96889 0.0568057C6.8374 -0.00878806 7.75044 -0.00878823 8.46306 0.0130763C8.64122 0.0130763 8.64122 0.100535 8.46306 0.187994C7.08236 0.822066 6.41428 1.89343 6.08024 3.33649C5.90208 4.07989 5.81301 4.95447 5.76847 5.89465C5.72393 6.83482 5.70166 7.8406 5.65712 8.93382C5.65712 9.10874 5.59031 9.17433 5.56804 9.1962C5.54577 9.1962 5.5235 9.1962 5.50123 9.13061C5.32308 8.54026 5.05585 7.55636 4.58819 6.44126C4.12053 5.3043 3.45245 4.03616 2.49486 2.8992L2.33898 2.70242L2.36125 2.94293C2.67302 5.78532 2.94025 6.44126 3.16295 6.83483C3.31883 7.11906 3.8533 7.49076 4.18734 7.70941C4.36549 7.81873 4.29869 7.88432 4.18734 7.88432C3.27429 7.86246 1.6709 7.775 0.735582 7.75314C0.468349 7.75314 0.624235 7.66568 0.735582 7.57822C1.11416 7.29398 1.93813 6.55058 1.9604 6.02584C1.98267 5.56668 1.82678 5.04193 1.73771 2.13394C1.40366 1.71851 0.646506 1.19376 0.089771 0.822066C-0.0438454 0.712743 -0.0215763 0.647149 0.11204 0.647149Z" transform="translate(11.6309 2.14795)" fill="#555555"/>
<path d="M0.105855 7.17158C0.217202 7.10599 0.350818 7.01853 0.484434 6.93107C0.863014 6.69056 1.33067 6.38446 1.5979 6.10022C2.08783 5.57547 2.19918 1.88035 1.79833 1.11509C1.70925 0.940176 1.5979 0.787125 1.50883 0.655937C1.41975 0.52475 1.33067 0.415427 1.26386 0.327968C1.21932 0.284239 1.19705 0.24051 1.17479 0.196781C1.04117 0.0218646 1.13025 0.0218639 1.17479 0.0218639C1.19705 0.0218639 1.24159 0.0218639 1.28613 0.0218639C1.46429 0.0218639 1.75379 0.0437298 2.26599 0.0437298C2.86726 0.0437298 3.22357 0.0218642 3.44626 -3.33627e-07C3.51307 -3.33627e-07 3.55761 -3.33627e-07 3.60215 -3.33627e-07C3.64669 -3.33627e-07 3.7135 0.0437295 3.60215 0.174917C3.57988 0.196782 3.57988 0.196781 3.55761 0.218645C3.40172 0.393562 3.11222 0.721532 2.68911 1.26815C2.46641 1.55239 2.60003 5.35682 3.04542 6.12208C3.22357 6.40632 3.4908 6.69056 3.75804 6.90921C3.89165 7.01853 4.003 7.19345 4.11435 7.28091H4.13662C4.2925 7.36836 4.24796 7.36836 4.13662 7.36836C3.64669 7.39023 2.77818 7.41209 1.90968 7.3465C1.15252 7.30277 0.640321 7.30277 0.30628 7.32463C0.239472 7.32463 0.172663 7.32463 0.105855 7.32463C0.039047 7.3465 -0.0945694 7.32464 0.105855 7.17158Z" transform="translate(17.0938 4.34741)" fill="#555555"/>
<path d="M2.01167 1.26451C1.65536 2.1391 0.452811 1.92045 0.163309 1.48316C-0.148463 1.00214 -0.059385 0.280608 0.831391 0.0400976C1.74444 -0.200413 2.23436 0.696035 2.01167 1.26451Z" transform="translate(18.5054)" fill="#555555"/>
<path d="M0.130319 0.00243862C1.04336 0.0680324 3.42619 0.221084 5.36363 0.221084C5.51951 0.221084 5.49724 0.308543 5.36363 0.396001C4.98505 0.592782 4.60647 0.789563 4.2947 0.942615C4.09427 1.05194 3.91612 1.1394 3.80477 1.20499C3.73796 1.24872 3.69342 1.27058 3.64889 1.31431C3.58208 1.37991 3.58207 1.40177 3.55981 1.42364C3.47073 2.1889 3.2703 3.69755 3.11442 5.05316C2.95853 6.3869 2.84719 7.65504 2.9808 7.82996C3.06988 7.93928 3.29257 8.02674 3.64889 8.17979C4.0052 8.31098 4.49512 8.50776 5.1632 8.74827C5.20774 8.77013 6.12079 7.28334 6.45483 6.71486C6.52164 6.60554 6.63298 6.51808 6.63298 6.71486C6.65525 7.43639 6.67752 8.57335 6.74433 9.25116C6.7666 9.40421 6.72206 9.42607 6.72206 9.44794C6.69979 9.4698 6.63298 9.4698 6.58845 9.4698C4.27243 9.42607 3.18123 9.40421 0.709325 9.40421C0.664786 9.40421 0.486631 9.40421 0.709325 9.22929C1.19925 8.87946 2.06776 8.17979 2.22364 8.00487C2.51314 7.67691 2.51314 7.02097 2.44634 5.97147C2.37953 4.9001 2.20137 3.36958 2.06776 1.29245C2.06776 1.16126 1.57783 0.898887 0.108048 0.155491C0.0189706 0.111762 -0.0923751 -0.019426 0.130319 0.00243862Z" transform="translate(39.2495 2.1366)" fill="#555555"/>
<path d="M1.06893 0.174917C0.556734 0.174917 0.155886 0.568479 0.155886 1.07136C0.155886 1.57425 0.556734 1.96781 1.06893 1.96781C1.58113 1.96781 1.98198 1.57425 1.98198 1.07136C1.95971 0.568479 1.55886 0.174917 1.06893 0.174917ZM1.06893 -6.67254e-07C1.6702 -6.67254e-07 2.13786 0.459156 2.13786 1.0495C2.13786 1.63984 1.6702 2.099 1.06893 2.099C0.467656 2.099 1.35922e-06 1.63984 1.35922e-06 1.0495C1.35922e-06 0.481021 0.467656 -6.67254e-07 1.06893 -6.67254e-07Z" transform="translate(42.7422 7.86768)" fill="#555555"/>
<path d="M0.155885 0.699667V1.18069H0V-6.67254e-07H0.244965C0.489928 -6.67254e-07 0.668082 0.109324 0.668082 0.349834C0.668082 0.546615 0.489926 0.655938 0.378579 0.677803L0.757158 1.20255H0.556735L0.200423 0.721531L0.155885 0.699667ZM0.155885 0.546614H0.267232C0.400848 0.546614 0.512197 0.481021 0.512197 0.349834C0.512197 0.218646 0.423118 0.153052 0.267232 0.153052H0.155885V0.546614Z" transform="translate(43.499 8.30493)" fill="#555555"/>
<path d="M0.885575 7.58701C1.15281 7.32463 1.53139 6.93107 1.73181 6.64683C1.79862 6.55937 1.82089 6.07835 1.84316 5.59733C1.86543 5.09445 1.86543 4.5041 1.86543 4.1324C1.8877 3.38901 1.57593 1.02764 1.50912 0.962041C1.48685 0.940177 1.46458 0.918312 1.42004 0.896448L1.28642 0.808989C1.17508 0.743396 1.06373 0.677802 0.907842 0.590344C0.61834 0.437292 0.284299 0.24051 0.0170661 0.0655934C-0.0274727 0.0218642 0.0170661 -1.66813e-07 0.128413 -1.66813e-07C1.75408 -1.66813e-07 4.9386 0 5.27265 0.0437292C5.29491 0.0437292 5.29492 0.0437288 5.29492 0.0655934C5.29492 0.0655934 5.29492 0.0655939 5.29492 0.0874585C5.29492 0.174917 5.29492 0.437291 5.29492 0.830854C5.29492 1.22442 5.27265 1.7273 5.27265 2.23019C5.27265 2.4707 5.20584 2.38324 5.09449 2.23019C4.8718 1.90222 4.67137 1.57425 4.51549 1.31187C4.42641 1.15882 4.33733 1.02763 4.27052 0.918312C4.20371 0.808989 4.13691 0.743396 4.09237 0.699666C4.04783 0.677802 4.00329 0.677802 3.95875 0.677802C3.91421 0.677802 3.86967 0.677802 3.80286 0.699666C3.69152 0.721531 3.5579 0.76526 3.37975 0.830854C3.20159 0.874583 3.06798 0.918312 2.95663 0.940176C2.91209 0.962041 2.84528 0.983906 2.80074 1.00577C2.7562 1.02764 2.73393 1.07136 2.71166 1.13696C2.62259 1.68357 2.33309 2.99545 2.28855 3.30155C2.28855 3.41087 2.33308 3.47647 2.42216 3.49833C2.4667 3.5202 2.51124 3.5202 2.57805 3.5202L2.77847 3.54206C2.93436 3.56393 3.04571 3.58579 3.11251 3.58579C3.17932 3.58579 3.2684 3.58579 3.31294 3.49833C3.5579 3.03918 3.82514 2.55816 4.00329 2.23019C4.13691 2.01154 4.18145 1.98968 4.18145 2.23019C4.13691 2.99545 4.09237 4.65715 4.0701 5.40055C4.0701 5.68479 3.98102 5.57547 3.89194 5.40055C3.64698 4.8758 3.49109 4.54783 3.24613 4.08868C3.20159 4.00122 3.13478 3.97935 3.02343 4.00122C2.95663 4.02308 2.84528 4.06681 2.68939 4.1324L2.4667 4.198C2.39989 4.21986 2.35535 4.24173 2.33309 4.26359C2.24401 4.30732 2.22174 4.37291 2.24401 4.43851C2.57805 5.70665 2.91209 6.86548 3.02343 6.93107C3.24613 7.06226 3.42428 7.17158 3.58017 7.25904C3.64698 7.30277 3.71379 7.3465 3.75833 7.3465C3.7806 7.3465 3.80287 7.36836 3.82513 7.36836C3.8474 7.36836 3.89194 7.36836 3.91421 7.3465C4.1369 7.17158 4.38187 6.73429 4.62683 6.25327C4.80499 5.90344 4.96087 5.50987 5.11676 5.1819C5.20584 4.98512 5.27265 4.91953 5.29492 5.1819C5.33946 5.90344 5.40626 7.49955 5.38399 7.6526C5.38399 7.69633 5.38399 7.7182 5.38399 7.76193C5.36172 7.80565 5.31718 7.80565 5.25037 7.80565C4.98314 7.80565 1.79862 7.76192 0.774228 7.78379C0.662881 7.76192 0.796497 7.67447 0.885575 7.58701Z" transform="translate(19.52 2.75134)" fill="#555555"/>
<path d="M5.81094 4.79122C5.87775 5.51275 5.87774 6.54038 5.87774 6.84649C5.90001 7.04327 5.81094 7.04327 5.72186 7.06513C4.56385 7.19632 2.33691 7.10886 0.844863 7.10886C0.733516 7.10886 0.733516 7.06513 0.844863 6.93395C1.04529 6.69344 1.33479 6.36547 1.57975 6.08123L1.95833 5.64394C2.06968 5.53461 2.13649 5.44715 2.15876 5.40343C2.20329 5.31597 1.82471 2.29866 1.64656 1.1617C1.53521 1.03051 1.24571 0.833729 0.911672 0.636947C0.666709 0.483895 0.377205 0.330844 0.109972 0.177792C-0.00137465 0.112198 -0.0681828 0.00287514 0.109972 0.00287514C0.978479 -0.0189894 1.84699 0.0903335 4.78655 0.112198C4.98697 0.112198 4.92016 0.221521 4.78655 0.287114C4.54158 0.396437 4.20754 0.54949 3.89577 0.702542C3.47265 0.899323 3.02726 1.11797 2.96046 1.20543C2.80457 2.58289 2.69322 3.74172 2.62641 4.55071C2.60415 4.96613 2.58188 5.27224 2.55961 5.51275C2.55961 5.62207 2.55961 5.70953 2.55961 5.77512C2.55961 5.81885 2.55961 5.84072 2.58188 5.86258C2.60415 5.90631 2.62641 5.92818 2.64868 5.95004C2.98272 6.08123 3.42811 6.23428 3.78442 6.36547C3.96258 6.43106 4.14073 6.47479 4.25208 6.51852C4.31889 6.54038 4.36343 6.54038 4.40797 6.56225C4.49704 6.56225 4.51931 6.56225 4.54158 6.56225C4.65293 6.49665 4.87562 6.12496 5.07605 5.73139C5.2542 5.42529 5.43236 5.07546 5.56597 4.83495C5.69959 4.68189 5.78867 4.59444 5.81094 4.79122Z" transform="translate(35.3721 3.16382)" fill="#555555"/>
</svg>
