<svg width="46" height="15" viewBox="0 0 46 15" fill="none" xmlns="http://www.w3.org/2000/svg">
<path d="M44.8314 11.0106C44.6678 11.0106 44.5158 10.9766 44.3756 10.9199C44.2354 10.8633 44.1068 10.7839 44.0016 10.6706C43.8965 10.5686 43.8147 10.4439 43.7562 10.3079C43.6978 10.1719 43.6627 10.0246 43.6627 9.8659C43.6627 9.70723 43.6978 9.5599 43.7562 9.42389C43.8147 9.28789 43.9082 9.16322 44.0016 9.06122C44.1068 8.95922 44.2354 8.87988 44.3756 8.82321C44.5158 8.76655 44.6678 8.73255 44.8314 8.73255C44.995 8.73255 45.1469 8.76655 45.2871 8.82321C45.4274 8.87988 45.5559 8.95922 45.6611 9.06122C45.7663 9.16322 45.8481 9.28789 45.9065 9.42389C45.9649 9.5599 46 9.70723 46 9.8659C46 10.0246 45.9649 10.1719 45.9065 10.3079C45.8481 10.4439 45.7663 10.5686 45.6611 10.6706C45.5559 10.7726 45.4274 10.8519 45.2871 10.9199C45.1352 10.9879 44.9833 11.0106 44.8314 11.0106ZM44.8314 10.8633C44.9716 10.8633 45.1002 10.8406 45.2287 10.7839C45.3456 10.7386 45.4507 10.6592 45.5442 10.5799C45.626 10.4892 45.6962 10.3872 45.7429 10.2626C45.7896 10.1379 45.813 10.0132 45.813 9.87723C45.813 9.74123 45.7896 9.61656 45.7429 9.49189C45.6962 9.36722 45.626 9.26522 45.5442 9.17455C45.4507 9.08389 45.3573 9.01589 45.2287 8.97055C45.1118 8.91388 44.9716 8.89122 44.8314 8.89122C44.6911 8.89122 44.5509 8.91388 44.434 8.97055C44.3055 9.01589 44.212 9.09522 44.1185 9.17455C44.0367 9.26522 43.9666 9.36722 43.9082 9.49189C43.8614 9.61656 43.838 9.74123 43.838 9.87723C43.838 10.0132 43.8614 10.1492 43.9082 10.2626C43.9549 10.3759 44.025 10.4892 44.1185 10.5799C44.212 10.6706 44.3055 10.7386 44.434 10.7839C44.5509 10.8406 44.6911 10.8633 44.8314 10.8633ZM45.4157 10.5119H45.2287L44.8547 9.9339H44.5626V10.5119H44.399V9.24256H44.9716C45.1469 9.24256 45.2638 9.27656 45.3339 9.33322C45.404 9.38989 45.4391 9.46923 45.4391 9.58256C45.4391 9.63923 45.4274 9.6959 45.404 9.74123C45.3806 9.78657 45.3573 9.82057 45.3222 9.84323C45.2871 9.8659 45.2404 9.88857 45.1936 9.8999C45.1469 9.91123 45.0885 9.92257 45.03 9.92257L45.4157 10.5119ZM44.7963 9.7979C44.8431 9.7979 44.8898 9.7979 44.9482 9.7979C45.0067 9.7979 45.0534 9.7979 45.1002 9.78657C45.1469 9.77523 45.182 9.75257 45.217 9.71856C45.2404 9.68456 45.2638 9.63923 45.2638 9.57123C45.2638 9.5259 45.2521 9.48056 45.2287 9.45789C45.2053 9.43523 45.182 9.40123 45.1586 9.38989C45.1235 9.37856 45.0885 9.36723 45.0534 9.35589C45.0184 9.35589 44.9716 9.34456 44.9366 9.34456H44.5626V9.7979H44.7963ZM16.3986 12.3479C16.4337 12.382 16.4337 12.4046 16.4103 12.4386C16.387 12.45 16.3636 12.4726 16.3402 12.5066C16.1415 12.722 15.9078 13.0733 15.639 13.5606L15.2183 14.3427C15.1131 14.5353 14.9846 14.7053 14.8327 14.8527C14.7158 14.9547 14.5873 15 14.4704 15C14.4587 15 14.4587 15 14.447 15C14.2834 14.9887 14.1432 14.9093 14.0146 14.762C13.9913 14.7393 13.9913 14.728 14.003 14.7167H14.0146C14.0146 14.7167 14.0263 14.7167 14.0263 14.728C14.0964 14.7733 14.1782 14.8073 14.2484 14.8073C14.2601 14.8073 14.2834 14.8073 14.2951 14.8073C14.4938 14.8073 14.7275 14.5807 14.9963 14.116L15.604 12.96L15.5923 12.9486C15.5455 13.028 15.4871 13.13 15.4053 13.2433C15.2534 13.4813 15.1248 13.6513 15.0313 13.742C14.9963 13.7873 14.9612 13.7986 14.9262 13.7986C14.9145 13.7986 14.9145 13.7986 14.9028 13.7986C14.7976 13.7646 14.7275 13.6966 14.6691 13.606C14.6457 13.572 14.6106 13.4926 14.5873 13.3793C14.5873 13.2886 14.6223 13.164 14.6924 13.028C14.7509 12.9146 14.8093 12.8126 14.8677 12.7333C14.8911 12.6993 14.9379 12.6313 15.008 12.5406C15.0664 12.4726 15.1482 12.3706 15.23 12.2346C15.2651 12.1893 15.2768 12.1553 15.2884 12.1213C15.2884 12.1099 15.2884 12.1099 15.2884 12.0986C15.2884 12.0873 15.2884 12.0873 15.2884 12.0873H15.3001C15.3118 12.0873 15.3118 12.0873 15.3352 12.0986C15.3936 12.1326 15.4521 12.1779 15.5105 12.2233C15.5572 12.2573 15.5689 12.3139 15.5572 12.3933C15.5572 12.4046 15.5339 12.4386 15.4988 12.4953C15.3118 12.7106 15.1716 12.892 15.0547 13.0393C14.9963 13.1073 14.9495 13.198 14.9028 13.2886C14.8794 13.3453 14.8561 13.402 14.8561 13.4473C14.8561 13.504 14.8561 13.5493 14.8677 13.572C14.9495 13.4926 15.0547 13.3793 15.1833 13.2433C15.2417 13.1866 15.3819 13.028 15.604 12.7786L16.0831 12.2346C16.1065 12.2006 16.1299 12.1779 16.1532 12.1779C16.1532 12.1779 16.1532 12.1779 16.1649 12.1779C16.1766 12.1779 16.1883 12.1893 16.2117 12.2006C16.2818 12.2346 16.3519 12.2799 16.3986 12.3479ZM14.2016 13.4246C13.9679 13.6513 13.7459 13.7646 13.5355 13.776C13.4186 13.776 13.3135 13.7193 13.2433 13.6173C13.1966 13.538 13.1732 13.4473 13.1732 13.334C13.1732 13.1866 13.2317 13.0166 13.3251 12.8466C13.4654 12.6426 13.5706 12.484 13.6524 12.3706C13.851 12.0873 13.9913 11.8606 14.0964 11.7019C14.2834 11.4186 14.3769 10.9766 14.4003 10.8973C14.412 10.8633 14.4237 10.8406 14.412 10.8179C14.4003 10.7953 14.4003 10.7839 14.3886 10.7839C14.3886 10.7726 14.3886 10.7726 14.3886 10.7613C14.3886 10.7613 14.3886 10.7613 14.4003 10.7613C14.4003 10.7613 14.412 10.7613 14.4237 10.7613C14.4704 10.7726 14.5288 10.8066 14.599 10.8519C14.6924 10.9199 14.7392 11.2599 14.7392 11.3506C14.7509 11.4186 14.7275 11.4866 14.6691 11.5659C14.3769 11.9399 14.1666 12.2006 14.0614 12.3593C14.1899 12.2573 14.3068 12.1779 14.412 12.1326C14.4353 12.1213 14.4587 12.1099 14.4821 12.1099C14.4938 12.1099 14.5055 12.1099 14.5288 12.1213C14.6106 12.1439 14.6691 12.1779 14.7041 12.2119C14.7626 12.2573 14.7859 12.3253 14.7859 12.4273C14.7742 12.518 14.7626 12.586 14.7275 12.654C14.5873 12.9713 14.412 13.2206 14.2016 13.4246ZM14.1198 13.0393C14.3185 12.7333 14.4237 12.4613 14.447 12.2459C14.1666 12.3933 13.8861 12.654 13.629 12.994C13.4888 13.1753 13.4186 13.334 13.407 13.4586C13.407 13.538 13.407 13.606 13.4303 13.6286C13.442 13.6286 13.4537 13.6286 13.4654 13.6286C13.6173 13.6513 13.8393 13.4473 14.1198 13.0393ZM18.2801 13.3226L17.9179 11.6453H16.8427V14.252H17.5556V12.4046L17.9646 14.252H18.584L19.0164 12.4159V14.252H19.7292V11.6453H18.6658L18.2801 13.3226ZM21.4471 13.2433C21.4471 13.8213 20.6641 13.8213 20.6641 13.2433V11.6453H19.8812V13.334C19.8812 14.048 20.4421 14.2973 21.0498 14.2973C21.6575 14.2973 22.2184 14.048 22.2184 13.334V11.6453H21.4354V13.2433H21.4471ZM15.7559 6.34117C16.1182 3.81378 12.6473 2.44242 8.1715 2.22709C8.13644 2.22709 8.13644 2.20442 8.19487 2.19309C8.9311 2.06842 13.5004 1.39974 15.4404 2.13642C15.0898 2.21575 14.412 2.34042 14.26 2.38576C14.1899 2.40842 14.1666 2.44242 14.1549 2.46509C14.1549 2.49909 14.1899 2.52176 14.2367 2.54443C14.412 2.64643 15.9429 2.78243 16.2117 2.78243C16.5038 2.78243 16.7375 2.86177 16.7726 1.52441C16.796 0.878394 16.8427 0.0170444 15.8844 0.0737122C15.4521 0.0963793 8.3351 -0.18696 6.03291 1.3544C5.68232 1.59241 5.57714 2.62376 6.17314 3.05444C6.29 3.13377 6.67565 3.16777 7.3184 3.16777C11.9462 3.16777 15.4637 5.02647 15.3001 6.32983C15.0197 8.53988 10.836 10.7273 6.47698 11.1579C2.95941 11.5093 0.178077 9.8319 0.540352 8.65321C1.05455 6.94184 3.99949 5.91049 6.61722 5.67249C10.4854 5.32115 12.215 6.27317 12.5655 6.47717C12.7993 6.61317 13.1031 6.49984 12.8811 6.2505C12.7642 6.12583 11.1515 4.34646 7.51706 4.40313C3.71902 4.4598 0.119645 6.29583 0.00278257 8.80055C-0.0556488 9.95657 0.809136 11.3959 2.31667 12.0533C3.87094 12.7333 6.06797 12.6313 6.55879 12.5973C8.73244 12.484 15.1015 10.8746 15.7559 6.34117ZM35.6343 11.6453H36.3939V14.252H35.5875L34.8045 12.7333V14.252H33.2736L33.1685 13.878H32.3855L32.2803 14.252H30.7611V12.4159L30.3287 14.252H29.7093L29.3003 12.4046V14.252H28.5874V11.6453H29.6626L30.0249 13.3226L30.4105 11.6453H31.4973V14.1273L32.3972 11.6453H33.2269L34.0683 14.1047V11.6453H34.863L35.646 13.1186V11.6453H35.6343ZM33.0165 13.3566L32.7828 12.4159L32.514 13.3566H33.0165ZM23.8077 12.6426C23.4572 12.5406 23.1066 12.518 23.0949 12.3253C23.0832 12.1326 23.352 12.1213 23.4338 12.1213C23.5156 12.1213 23.761 12.1326 23.7844 12.4159H24.5557C24.5557 11.8719 24.135 11.5773 23.4572 11.5659C22.7326 11.5546 22.3236 11.9059 22.3236 12.3593C22.3236 12.824 22.7209 13.0166 23.0598 13.13C23.4104 13.232 23.8545 13.2886 23.8428 13.5153C23.8428 13.708 23.5857 13.7306 23.5039 13.7306C23.4221 13.7306 23.0949 13.7533 23.0832 13.3566H22.2885C22.3002 13.946 22.756 14.2747 23.4338 14.286C24.1583 14.2973 24.6375 13.9686 24.6375 13.436C24.6375 12.858 24.1466 12.756 23.8077 12.6426ZM44.7729 6.78317C44.6444 6.94184 43.8614 7.92786 43.6277 8.23387C43.5459 8.34721 43.1018 8.90255 42.6928 9.58256C42.0383 10.6933 41.5125 11.8493 41.0801 12.518C40.5893 13.2886 39.2921 14.3767 38.0416 13.9686C37.5274 13.7986 37.0834 13.3113 36.9665 13.1413C36.9081 13.062 36.9782 12.9486 37.0951 13.028C37.3405 13.198 37.7612 13.4473 38.3922 13.2886C39.257 13.062 40.3438 11.6113 40.9632 10.4666C41.2904 9.85457 43.0317 7.13452 43.0317 7.13452C43.0317 7.13452 43.0083 7.08918 42.9966 7.07785C42.8564 7.24785 42.4591 7.79186 42.05 8.36987C41.5826 9.03855 41.1151 9.75257 40.9866 9.87723C40.823 10.0472 40.6009 10.2172 40.3789 10.0699C40.3088 10.0246 39.8764 9.5939 39.6894 9.27656C39.6427 9.20856 39.5959 8.99322 39.5959 8.95922C39.5725 8.73255 39.5959 8.47187 39.6427 8.18854C39.2687 8.72121 38.3572 10.0019 38.1702 10.1946C37.878 10.4892 37.6443 10.4552 37.5508 10.3872C37.469 10.3419 36.873 9.88857 36.7795 9.7979C36.3354 9.36723 36.5341 8.68721 36.5692 8.56254C36.8146 7.71253 37.9014 6.02383 37.9014 6.02383L37.8663 5.98983C37.843 6.01249 37.1885 6.71517 36.4289 7.53119C35.4122 8.63054 34.2202 9.9679 34.1969 10.2852C34.1969 10.3306 34.1969 10.4099 34.1384 10.4439C34.0917 10.4666 33.9631 10.4099 33.9047 10.3419C33.8346 10.2626 33.6009 9.99057 33.5541 9.7639C33.519 9.6279 33.5424 9.34456 33.6009 9.19722C33.6125 9.18589 33.6593 9.03855 33.7761 8.81188C34.2903 7.8712 35.5992 5.51382 35.5992 5.51382C35.5992 5.51382 35.5992 5.50248 35.5875 5.50248C35.5291 5.55915 35.459 5.63849 35.3772 5.72916C35.2136 5.91049 34.9915 6.1825 34.7578 6.44317C34.5591 6.66984 34.4072 6.86251 34.3955 6.88518C34.3605 6.95318 32.3037 9.91123 32.2336 10.0132C32.1518 10.1266 31.9414 10.4552 31.5674 10.3872C31.2636 10.3419 30.6442 9.7979 30.4806 9.43523C30.4339 9.33322 30.2703 8.93655 30.2936 8.65321C30.3053 8.53988 30.3287 8.42654 30.3521 8.30187C29.9664 8.86855 29.4639 9.63923 29.1834 9.9679C28.9263 10.2739 28.5874 10.3872 28.3303 10.2852C28.0382 10.1719 27.7928 9.97924 27.4889 9.77523C27.1968 9.58256 26.9747 8.80055 27.1617 7.95053C26.928 8.26787 26.6125 8.73255 26.332 9.12922C25.8762 9.78657 25.4438 10.4099 25.1634 10.3079C25.1049 10.2852 24.8011 10.1492 24.5089 9.91124C24.0999 9.57123 23.8895 9.09522 24.0882 8.26787C24.2285 7.67853 25.6542 5.75182 26.3203 5.00381C26.3554 4.96981 26.3203 4.94714 26.3203 4.93581C26.2268 4.96981 25.5957 5.30981 24.8712 5.46848C24.0999 6.60184 22.7443 8.58521 21.7276 9.67323C21.3653 10.0586 21.0848 10.3192 20.7459 10.2852C20.6174 10.2739 20.185 10.1832 19.7175 9.78657C19.5539 9.65056 19.2735 9.38989 19.1449 9.18589C18.9696 8.92522 18.9346 8.48321 18.9696 8.08653C18.6073 8.64188 18.0698 9.51456 17.7542 9.85457C17.0764 10.5799 16.5622 10.1152 16.1649 9.77523C15.8377 9.50323 15.3235 8.68721 15.7325 7.65586C16.1065 6.69251 16.7142 5.68382 17.3219 4.74314C17.0764 4.74314 16.8077 4.6978 16.5038 4.5958C16.4103 4.5618 16.3753 4.5278 16.3753 4.48246C16.3753 4.41446 16.4688 4.40313 16.5038 4.3918C16.6441 4.33513 17.1816 4.25579 17.6608 4.21046C18.1866 3.41711 18.6775 2.72576 18.9813 2.20442C19.0865 2.03442 19.215 1.71708 19.1683 1.59241C19.1332 1.49041 19.215 1.45641 19.3085 1.49041C19.402 1.53574 19.7877 1.71708 20.0331 2.02308C20.1266 2.14775 20.5706 2.68043 19.9396 3.46244C19.8227 3.60978 19.6357 3.83645 19.4137 4.11979C19.776 4.13112 20.1383 4.15379 20.2434 4.17646C20.2785 4.17646 20.3603 4.21046 20.3837 4.25579C20.4187 4.31246 20.3486 4.3918 20.2902 4.41446C19.9746 4.55047 19.4137 4.65247 18.9579 4.6978C17.7192 6.3185 15.9779 8.83455 16.5272 9.57123C16.7726 9.8999 18.4321 8.0412 19.2033 7.14585C19.8461 5.51382 21.3887 4.18779 22.4054 3.85912C22.6391 3.93845 23.1533 4.4938 23.3403 4.95847C23.4221 5.03781 23.5039 5.11714 23.5273 5.19648C23.6909 5.64982 22.2535 7.40652 21.4354 7.33852C21.19 7.31585 20.8745 6.98718 20.7459 6.79451C19.6007 8.33587 19.6591 9.61656 20.1149 9.6959C20.7459 9.7979 22.3937 8.19987 22.8728 7.61052C23.539 6.80584 24.2051 5.81982 24.5674 5.29848C23.8545 4.51646 24.6725 3.25844 25.1517 2.81643C25.3854 2.60109 25.7594 2.89577 25.8528 3.02044C25.9463 3.13377 26.1567 3.39444 26.0515 3.63245C26.0048 3.74578 25.7009 4.22179 25.7009 4.22179C25.7009 4.22179 25.7009 4.30113 25.7243 4.30113C25.7477 4.30113 26.2151 4.17646 26.3086 4.16512C26.6826 4.13112 27.0215 4.4598 27.15 4.57313C27.4305 4.7998 27.6876 5.18514 27.5006 5.47982C27.4422 5.55915 26.9046 6.26183 26.332 7.05518C25.6308 8.0072 24.8712 9.11789 24.9296 9.57123C24.9296 9.6279 25.3386 9.40123 26.1216 8.50588C26.6241 7.98453 27.1851 7.34985 27.6058 6.85118C28.5641 4.96981 30.1768 2.68043 30.9013 1.2864C30.9948 1.10507 31.2052 0.48172 31.0883 0.198381C31.0416 0.0963791 31.1584 -0.0282896 31.287 0.00571102C31.3921 0.0283781 31.7077 0.209715 31.9881 0.606389C32.0466 0.697058 32.3855 1.20707 32.3037 1.69441C32.2686 1.90975 32.105 2.11375 31.9531 2.35176C31.1584 3.56445 27.3837 8.44921 28.1434 9.61656C28.4121 9.88857 30.1183 7.92786 30.8078 7.08918C31.5441 5.57049 32.7945 3.97245 32.8296 3.93845C32.8646 3.89312 32.8997 3.80245 33.075 3.84779C33.3204 3.91579 33.8112 4.5278 33.8813 4.61847C33.9514 4.6978 33.8696 4.8338 33.8112 4.90181C32.7711 6.04649 30.9948 8.93655 31.1701 9.61656C31.2169 9.6619 31.2987 9.63923 31.4038 9.58256C31.8012 9.33322 33.4489 7.51986 34.0216 6.86251C34.6176 6.10316 36.1485 4.17646 36.3121 3.94979C36.3588 3.88179 36.464 3.90445 36.5107 3.93845C36.5575 3.97245 37.1067 4.25579 37.3521 4.5958C37.5041 4.7998 37.4223 4.95847 37.3989 5.02647C37.3755 5.11714 36.2887 6.91918 36.0783 7.20252C36.09 7.23652 36.1017 7.25918 36.1368 7.24785C36.1601 7.23652 36.9314 6.49984 37.656 5.68382C38.2754 4.98114 38.9298 4.17646 39.0817 3.99512C39.1168 3.96112 39.222 3.90445 39.2921 3.93845C39.4674 4.00645 40.1101 4.7318 40.1452 4.77714C40.2854 4.99247 40.1452 5.16248 40.0984 5.21915C40.0517 5.27581 39.0583 6.5565 38.8947 6.79451C38.6376 7.20252 37.5625 8.72121 37.3521 9.5939C37.5041 9.65056 37.6092 9.57123 37.6677 9.54856C38.1702 9.27656 39.4557 7.76919 40.0634 7.03251C40.6711 5.62715 41.9332 4.22179 43.7095 3.67778C44.0601 3.74578 44.6561 4.64113 44.6561 5.02647C44.6561 5.35515 44.434 5.20781 44.399 5.13981C44.3873 5.10581 44.3172 5.01514 44.2821 4.94714C44.2587 4.89047 44.2354 4.85647 44.1302 4.87914C43.9783 4.91314 42.7395 5.33248 41.6761 6.60184C41.4774 6.83984 40.3205 8.22254 40.3789 9.35589C40.4023 9.35589 43.6511 5.77449 43.7095 5.70649C43.7796 5.61582 43.8497 5.50248 43.99 5.58182C44.0601 5.62715 44.5976 6.08049 44.6795 6.15983C44.7729 6.2505 44.9482 6.5565 44.7729 6.78317ZM20.8044 6.70384C21.2601 7.08918 21.9379 6.4205 22.1717 6.1485C22.4171 5.86516 22.6508 5.52515 22.8261 5.24181C22.2768 5.45715 21.4004 5.91049 20.8044 6.70384ZM24.7076 14.2407H25.5256V11.6339H24.7076V14.2407ZM26.8696 13.6853C26.5657 13.6853 26.4021 13.3793 26.4021 12.9373C26.4021 12.4953 26.5774 12.1893 26.8696 12.1893C27.1617 12.1893 27.2786 12.3933 27.2903 12.586H28.0849C28.0499 12.0193 27.6642 11.5659 26.8696 11.5659C26.0749 11.5659 25.5957 12.1213 25.5957 12.9373C25.5957 13.742 26.0632 14.3087 26.8696 14.2973C27.6642 14.2973 28.0966 13.8213 28.1083 13.232H27.3253C27.3019 13.4586 27.1617 13.674 26.8696 13.6853ZM33.2269 1.93241C33.2269 1.93241 33.2386 1.94375 33.2269 1.93241L33.2386 1.94375C33.297 1.97775 33.4022 2.04575 33.4606 2.07975L34.1151 2.48776C34.1151 2.48776 34.1151 2.48776 34.1267 2.48776C34.1735 2.52176 34.1852 2.57843 34.1852 2.63509C34.1852 2.64643 34.1735 2.6691 34.1618 2.68043L33.8813 3.38311C33.858 3.45111 33.8112 3.55311 33.7878 3.62111C33.7761 3.66645 33.7761 3.68912 33.7995 3.68912C33.8112 3.68912 33.8112 3.67778 33.8229 3.67778C33.8346 3.67778 33.8463 3.67778 33.8696 3.65511C33.9281 3.60978 34.0099 3.53045 34.0683 3.49644L34.6526 3.03177C34.676 3.0091 34.7111 2.99777 34.7461 2.99777C34.7812 2.99777 34.8162 3.0091 34.8513 3.03177L35.459 3.50778C35.5174 3.55311 35.6109 3.62111 35.6693 3.66645C35.6927 3.67778 35.7044 3.68912 35.7161 3.68912C35.7394 3.68912 35.7394 3.66645 35.7161 3.62111C35.6927 3.55311 35.646 3.45111 35.6226 3.38311L35.3421 2.68043C35.3187 2.61243 35.3421 2.53309 35.4005 2.48776L36.055 2.07975C36.1134 2.04575 36.2186 1.97775 36.277 1.94375C36.3121 1.92108 36.3238 1.90975 36.3121 1.89841C36.3238 1.88708 36.3354 1.86441 36.3238 1.86441C36.3121 1.85308 36.3004 1.85308 36.2653 1.85308C36.1952 1.85308 36.0783 1.86441 36.0082 1.86441L35.2369 1.90975C35.2019 1.90975 35.1668 1.89841 35.1318 1.87575C35.0967 1.85308 35.0733 1.81908 35.0733 1.78508L34.863 1.05973C34.8396 0.99173 34.8162 0.878394 34.7929 0.810393C34.7929 0.787726 34.7812 0.765059 34.7695 0.765059C34.7578 0.753725 34.7344 0.765059 34.7227 0.810393C34.711 0.844394 34.7111 0.878394 34.6877 0.923729C34.676 0.980396 34.6526 1.03706 34.6526 1.07106L34.454 1.79641C34.454 1.80775 34.454 1.80775 34.4423 1.81908C34.4072 1.86441 34.3488 1.89841 34.2903 1.89841L33.5191 1.86441C33.4489 1.86441 33.3321 1.85308 33.2619 1.85308C33.1918 1.87575 33.1801 1.89841 33.2269 1.93241Z" fill="#555555"/>
</svg>
